<?xml version="1.0" encoding="UTF-8"?><svg id="Layer_2" xmlns="http://www.w3.org/2000/svg" viewBox="0 0 64 64"><defs><style>.cls-1{fill:#747987;}</style></defs><path class="cls-1" d="M24.99,36.2c-1.03,1.47-1.59,3.24-1.59,5.06s.57,3.6,1.63,5.1v5.38c0,1.19,.77,2.23,1.92,2.59,1.77,.56,3.56,.84,5.33,.84s3.54-.28,5.29-.84c1.14-.37,1.91-1.41,1.91-2.59v-5.39c1.07-1.49,1.63-3.24,1.63-5.1s-.57-3.6-1.61-5.08c3.87-5.3,6.94-11.02,9.1-17.04,.76-2.11,.14-4.42-1.59-5.88-1.48-1.25-3.43-1.6-5.19-.99-.91-1.63-2.13-2.64-3.64-3.03-2.39-.61-4.78,.62-5.9,1.33-1.89-1.41-3.78-1.98-5.65-1.68-2.1,.33-3.58,1.69-4.36,2.59-2.31-1.3-4.52-.88-6.17,1.21-1.04,1.32-1.35,3.1-.83,4.77,2.31,7.37,5.49,13.51,9.69,18.75Zm12.8,.99c.86,1.17,1.33,2.59,1.33,4.06s-.49,2.97-1.42,4.17c0,0,0,0,0,0,0,0,0,0,0,0-.99,1.3-2.56,1.83-5.43,1.83s-4.45-.53-5.44-1.83c0,0,0,0,0,0,0,0,0,0,0,0-.93-1.2-1.42-2.64-1.42-4.17s.47-2.89,1.33-4.06h11.06Zm-.3,14.55c0,.31-.21,.59-.52,.69-3.15,1.01-6.23,1.01-9.41,0-.31-.1-.53-.38-.53-.69v-3.53c1.58,.89,3.48,1.05,5.23,1.05s3.65-.15,5.23-1.05v3.53ZM17.7,13.93c1.16-1.48,2.51-1.57,4.23-.3,.22,.16,.51,.23,.78,.18,.27-.05,.51-.21,.66-.45,.01-.02,1.38-2.15,3.61-2.49,1.45-.23,3.01,.35,4.63,1.72,.36,.3,.89,.31,1.26,.02,.03-.02,2.6-1.99,4.84-1.42,1.14,.29,2.06,1.23,2.74,2.8,.11,.27,.38,.45,.65,.54,.28,.09,.61,.03,.86-.12,1.47-.82,2.91-.34,3.77,.38,.86,.73,1.57,2.08,1,3.67-2.13,5.91-5.15,11.54-8.98,16.73h-11.02c-4.13-5.1-7.26-11.1-9.53-18.34-.32-1.03-.14-2.13,.49-2.93Z"/><path class="cls-1" d="M36,29.44c.17,.11,.36,.16,.54,.16,.33,0,.65-.16,.84-.45,2.39-3.68,3.62-7.38,3.74-11.32,.02-.55-.42-1.01-.97-1.03-.54-.03-1.01,.42-1.03,.97-.11,3.56-1.23,6.92-3.42,10.29-.3,.46-.17,1.08,.29,1.38Z"/><path class="cls-1" d="M32.15,25.76h.01c.55,0,.99-.44,1-.99l.1-8.54c0-.55-.44-1.01-.99-1.01h-.01c-.55,0-.99,.44-1,.99l-.1,8.54c0,.55,.44,1.01,.99,1.01Z"/><path class="cls-1" d="M27.29,29.61c.18,.35,.53,.55,.89,.55,.15,0,.31-.04,.45-.11,.49-.25,.69-.85,.44-1.35-2.55-4.99-3.69-10.02-3.7-10.07-.12-.54-.66-.88-1.19-.76-.54,.12-.88,.65-.76,1.19,.05,.21,1.21,5.31,3.87,10.54Z"/><path class="cls-1" d="M29.69,45.01c.85,.36,1.71,.54,2.57,.54s1.72-.18,2.57-.54c.51-.21,.75-.8,.53-1.31-.21-.51-.8-.75-1.31-.53-1.21,.51-2.38,.51-3.59,0-.51-.21-1.1,.02-1.31,.53-.21,.51,.03,1.1,.53,1.31Z"/></svg>