<?xml version="1.0" encoding="UTF-8"?><svg id="Layer_2" xmlns="http://www.w3.org/2000/svg" viewBox="0 0 64 64"><defs><style>.cls-1{fill:#747987;}</style></defs><path class="cls-1" d="M32,39.48c-.55,0-1,.45-1,1v7.56c0,.55,.45,1,1,1s1-.45,1-1v-7.56c0-.55-.45-1-1-1Z"/><path class="cls-1" d="M32,31.79c-.55,0-1,.45-1,1v2.06c0,.55,.45,1,1,1s1-.45,1-1v-2.06c0-.55-.45-1-1-1Z"/><path class="cls-1" d="M45.62,16.02c-.15-.26-.41-.43-.71-.48l-3.23-.51c-1.08-.17-2-.86-2.48-1.83l-.53-1.08c-.3-1.97-3.6-2.87-6.68-2.87s-6.38,.9-6.68,2.87l-.53,1.08c-.48,.98-1.41,1.66-2.48,1.83l-3.23,.51c-.29,.05-.55,.22-.71,.48l-8.46,14.3c-.14,.24-.18,.53-.1,.8,.08,.27,.27,.49,.53,.61l3.88,1.83-4.31,9.56c-.11,.24-.12,.52-.02,.77s.29,.45,.54,.56l5.89,2.54-1.08,4.32c-.08,.33,0,.68,.24,.93,.23,.25,.57,.36,.91,.3,3.94-.72,11.13-.04,15.14,2.09,.05,.02,.1,.04,.14,.05,.03,0,.05,.02,.08,.03,.08,.02,.17,.03,.25,.03,0,0,0,0,0,0s0,0,0,0c.08,0,.17-.01,.25-.03,.03,0,.05-.02,.08-.03,.05-.02,.1-.03,.14-.05,4.01-2.14,11.19-2.81,15.14-2.09,.34,.06,.68-.05,.91-.3,.23-.25,.32-.6,.24-.93l-1.08-4.32,5.89-2.54c.25-.11,.44-.31,.54-.56s.09-.53-.02-.77l-4.31-9.56,3.88-1.83c.25-.12,.45-.34,.53-.61,.08-.27,.05-.56-.1-.8l-8.46-14.3Zm-13.62-4.77c2.84,0,4.44,.79,4.69,1.16-.25,.37-1.85,1.16-4.69,1.16s-4.55-.85-4.71-1.11c0,0,0,0,0,0,.15-.35,1.76-1.2,4.71-1.2Zm16.88,20.53l-3-5.44c-.27-.48-.87-.66-1.36-.39-.48,.27-.66,.88-.39,1.36l3.43,6.23,4.28,9.49-4.85,2.09-3.48-7.32c-.24-.5-.83-.71-1.33-.47-.5,.24-.71,.83-.47,1.33l3.85,8.1,.9,3.61c-4.28-.41-10.47,.33-14.46,2.27-3.99-1.93-10.18-2.67-14.46-2.27l.9-3.61,3.85-8.1c.24-.5,.02-1.1-.47-1.33-.5-.24-1.1-.02-1.33,.47l-3.48,7.32-4.85-2.09,4.28-9.49,3.43-6.23c.27-.48,.09-1.09-.39-1.36-.49-.27-1.09-.09-1.36,.39l-3,5.44-2.93-1.38,7.66-12.95,2.77-.43c1.64-.26,3.05-1.27,3.84-2.71,1.29,.87,3.46,1.28,5.53,1.28s4.24-.41,5.53-1.28c.79,1.44,2.21,2.45,3.84,2.71l2.77,.43,7.66,12.95-2.93,1.38Z"/></svg>