<?xml version="1.0" encoding="UTF-8"?><svg id="Layer_2" xmlns="http://www.w3.org/2000/svg" viewBox="0 0 64 64"><defs><style>.cls-1{fill:#747987;}</style></defs><path class="cls-1" d="M51.09,41.17v-14.7c0-2.82-2.29-5.11-5.11-5.11h-2.91V13.35c0-2.2-1.79-3.99-3.99-3.99h-14.16c-2.2,0-3.99,1.79-3.99,3.99v8.02h-2.91c-2.82,0-5.11,2.29-5.11,5.11v14.7c0,.55,.45,1,1,1h14.98v10.47h-3.44c-.55,0-1,.45-1,1s.45,1,1,1h13.12c.55,0,1-.45,1-1s-.45-1-1-1h-3.44v-10.47h14.98c.55,0,1-.45,1-1ZM22.92,13.35c0-1.1,.89-1.99,1.99-1.99h14.16c1.1,0,1.99,.89,1.99,1.99V31.28H22.92V13.35Zm-8.02,13.13c0-1.71,1.39-3.11,3.11-3.11h2.91v16.8h-6.02v-13.7Zm8.02,6.81h18.15v6.89H22.92v-6.89Zm10.19,19.36h-2.24v-10.47h2.24v10.47Zm15.98-12.47h-6.02V23.37h2.91c1.71,0,3.11,1.39,3.11,3.11v13.7Z"/></svg>