<?xml version="1.0" encoding="UTF-8"?><svg id="Layer_2" xmlns="http://www.w3.org/2000/svg" viewBox="0 0 64 64"><defs><style>.cls-1{fill:#747987;}</style></defs><path class="cls-1" d="M9.75,47.04h6.79c.36,0,.69-.19,.86-.5l6.04-10.39h7.22v13.23c-.26,.03-.53,.07-.78,.12-3.38,.7-5.4,2.29-5.4,4.24,0,.55,.45,1,1,1s1-.45,1-1c0-.74,1.31-1.76,3.8-2.28,.24-.05,.5-.1,.67-.12h.7s0,0,0,0,0,0,0,0h3.12s.01,0,.02,0,.01,0,.02,0h.58c.26,.02,.51,.07,.76,.12,2.49,.5,3.83,1.55,3.83,2.28,0,.55,.45,1,1,1s1-.45,1-1c0-1.94-2.08-3.57-5.44-4.24-.23-.05-.48-.09-.76-.12v-7.79h2.1v1.12c0,.55,.45,1,1,1s1-.45,1-1v-4.24c0-.55-.45-1-1-1s-1,.45-1,1v1.12h-2.1v-3.44h8.21c.55,0,1-.45,1-1s-.45-1-1-1h-9.21s0,0,0,0h-3.15s0,0,0,0h-9.42c-.95,0-1.72-.77-1.72-1.72s.77-1.72,1.72-1.72h21.78c.4,0,.77-.24,.92-.61l3.57-8.49s0,0,0,0l3.91-9.31c.21-.51-.03-1.09-.54-1.31-.51-.22-1.1,.02-1.31,.54l-3.65,8.7h-12.54c-1.98,0-3.81,.99-4.89,2.65l-3.83,5.85h-3.43c-2.05,0-3.72,1.67-3.72,3.72,0,1.7,1.15,3.12,2.71,3.56l-5.26,9.04h-6.21c-.55,0-1,.45-1,1s.45,1,1,1ZM31.17,23.95c.71-1.09,1.91-1.74,3.22-1.74h11.7l-2.73,6.5h-15.3l3.11-4.76Zm2.64,25.4h-1.15s0-13.2,0-13.2h1.15v13.2Z"/></svg>