<?xml version="1.0" encoding="UTF-8"?><svg id="Layer_2" xmlns="http://www.w3.org/2000/svg" viewBox="0 0 64 64"><defs><style>.cls-1{fill:#747987;}</style></defs><path class="cls-1" d="M31.99,35.77c5.85,0,10.55-6.99,10.55-12.77,0-6.16-4.93-11.55-10.55-11.55s-10.55,5.4-10.55,11.55c0,5.78,4.71,12.77,10.55,12.77Zm0-22.32c4.9,0,8.55,5.04,8.55,9.55,0,4.85-3.95,10.77-8.55,10.77s-8.55-5.92-8.55-10.77c0-4.51,3.66-9.55,8.55-9.55Z"/><path class="cls-1" d="M23.3,35.87c2.08,1.96,3.02,5.03,2.47,8.01-.1,.56-.2,1.45-.3,2.39-.09,.8-.18,1.64-.26,2.09-.36,2.05,.19,4.14,1.52,5.74,1.28,1.54,3.15,2.44,5.13,2.46h.14c1.96,0,3.83-.88,5.11-2.42,1.35-1.61,1.91-3.72,1.55-5.73l-.6-4.8c-.51-2.86,.44-5.74,2.54-7.71,3.6-3.39,6.02-8.54,6.02-12.83s-2.01-8.86-5.39-11.89c-3.1-2.79-6.97-4.09-10.89-3.66-6.24,.68-11.89,6.58-12.86,13.43-.71,4.99,1.62,10.98,5.8,14.91Zm-3.82-14.63c.85-5.99,5.72-11.14,11.09-11.72,.41-.04,.82-.07,1.23-.07,2.92,0,5.75,1.12,8.1,3.23,2.96,2.65,4.72,6.54,4.72,10.4s-2.17,8.34-5.39,11.37c-2.59,2.43-3.76,5.99-3.14,9.46l.6,4.8c.26,1.48-.14,2.99-1.11,4.15-.92,1.1-2.19,1.7-3.58,1.7h-.12s0,0,0,0c-1.41-.01-2.69-.63-3.61-1.73-.95-1.15-1.35-2.65-1.09-4.11,.09-.52,.18-1.35,.28-2.23,.09-.86,.19-1.76,.28-2.24,.69-3.7-.46-7.38-3.06-9.83-3.66-3.45-5.8-8.87-5.19-13.18Z"/><path class="cls-1" d="M31.99,46.61c-1.79,0-3.25,1.46-3.25,3.25s1.46,3.25,3.25,3.25,3.25-1.46,3.25-3.25-1.46-3.25-3.25-3.25Zm0,4.5c-.69,0-1.25-.56-1.25-1.25s.56-1.25,1.25-1.25,1.25,.56,1.25,1.25-.56,1.25-1.25,1.25Z"/><path class="cls-1" d="M31.99,17.91c.55,0,1-.45,1-1v-.4c0-.55-.45-1-1-1s-1,.45-1,1v.4c0,.55,.45,1,1,1Z"/><path class="cls-1" d="M28.64,17.91c.55,0,1-.45,1-1v-.4c0-.55-.45-1-1-1s-1,.45-1,1v.4c0,.55,.45,1,1,1Z"/><path class="cls-1" d="M35.33,17.91c.55,0,1-.45,1-1v-.4c0-.55-.45-1-1-1s-1,.45-1,1v.4c0,.55,.45,1,1,1Z"/><path class="cls-1" d="M31.99,25.01c.55,0,1-.45,1-1v-.4c0-.55-.45-1-1-1s-1,.45-1,1v.4c0,.55,.45,1,1,1Z"/><path class="cls-1" d="M29.64,24.01v-.4c0-.55-.45-1-1-1s-1,.45-1,1v.4c0,.55,.45,1,1,1s1-.45,1-1Z"/><path class="cls-1" d="M26.09,23.6c0-.55-.45-1-1-1s-1,.45-1,1v.4c0,.55,.45,1,1,1s1-.45,1-1v-.4Z"/><path class="cls-1" d="M35.33,25.01c.55,0,1-.45,1-1v-.4c0-.55-.45-1-1-1s-1,.45-1,1v.4c0,.55,.45,1,1,1Z"/><path class="cls-1" d="M37.81,23.45v.4c0,.55,.45,1,1,1s1-.45,1-1v-.4c0-.55-.45-1-1-1s-1,.45-1,1Z"/><path class="cls-1" d="M31.99,28.82c-.55,0-1,.45-1,1v.4c0,.55,.45,1,1,1s1-.45,1-1v-.4c0-.55-.45-1-1-1Z"/><path class="cls-1" d="M28.64,28.82c-.55,0-1,.45-1,1v.4c0,.55,.45,1,1,1s1-.45,1-1v-.4c0-.55-.45-1-1-1Z"/><path class="cls-1" d="M35.33,28.82c-.55,0-1,.45-1,1v.4c0,.55,.45,1,1,1s1-.45,1-1v-.4c0-.55-.45-1-1-1Z"/><path class="cls-1" d="M29.24,19.98v.4c0,.55,.45,1,1,1s1-.45,1-1v-.4c0-.55-.45-1-1-1s-1,.45-1,1Z"/><path class="cls-1" d="M26.9,21.38c.55,0,1-.45,1-1v-.4c0-.55-.45-1-1-1s-1,.45-1,1v.4c0,.55,.45,1,1,1Z"/><path class="cls-1" d="M32.59,19.98v.4c0,.55,.45,1,1,1s1-.45,1-1v-.4c0-.55-.45-1-1-1s-1,.45-1,1Z"/><path class="cls-1" d="M36.1,20.38c0,.55,.45,1,1,1s1-.45,1-1v-.4c0-.55-.45-1-1-1s-1,.45-1,1v.4Z"/><path class="cls-1" d="M31.24,26.77c0-.55-.45-1-1-1s-1,.45-1,1v.4c0,.55,.45,1,1,1s1-.45,1-1v-.4Z"/><path class="cls-1" d="M27.9,27.17v-.4c0-.55-.45-1-1-1s-1,.45-1,1v.4c0,.55,.45,1,1,1s1-.45,1-1Z"/><path class="cls-1" d="M34.59,26.77c0-.55-.45-1-1-1s-1,.45-1,1v.4c0,.55,.45,1,1,1s1-.45,1-1v-.4Z"/><path class="cls-1" d="M37.1,25.77c-.55,0-1,.45-1,1v.4c0,.55,.45,1,1,1s1-.45,1-1v-.4c0-.55-.45-1-1-1Z"/></svg>