<?xml version="1.0" encoding="UTF-8"?><svg id="Layer_2" xmlns="http://www.w3.org/2000/svg" viewBox="0 0 64 64"><defs><style>.cls-1{fill:#747987;}</style></defs><path class="cls-1" d="M49.07,14.88c-3.26-3.26-8.42-3.48-11.94-.67l-1.35-1.35c-.39-.39-1.02-.39-1.41,0s-.39,1.02,0,1.41l1.31,1.31-2.24,2.24-1.31-1.31c-.39-.39-1.02-.39-1.41,0s-.39,1.02,0,1.41l1.31,1.31-2.24,2.24-1.31-1.31c-.39-.39-1.02-.39-1.41,0-.39,.39-.39,1.02,0,1.41l1.31,1.31-2.24,2.24-1.31-1.31c-.39-.39-1.02-.39-1.41,0s-.39,1.02,0,1.41l1.31,1.31-1.03,1.03c-.19,.19-.3,.46-.29,.74,.08,2.78-.73,6.36-3.24,8.09-.34,.23-1.18,.61-1.93,.94-.93,.41-1.81,.8-2.31,1.16-1.7,1.19-2.79,3.06-2.98,5.14-.18,2,.5,3.95,1.89,5.36l.1,.1c1.25,1.24,2.94,1.93,4.71,1.93,.2,0,.41,0,.61-.03,2.09-.18,3.98-1.28,5.23-3.07l2.39-4.14c1.75-2.5,5.15-3.31,7.75-3.22,.28,0,.54-.1,.74-.29l1.05-1.05,1.36,1.36c.2,.2,.45,.29,.71,.29s.51-.1,.71-.29c.39-.39,.39-1.02,0-1.41l-1.36-1.36,2.24-2.24,1.36,1.36c.2,.2,.45,.29,.71,.29s.51-.1,.71-.29c.39-.39,.39-1.02,0-1.41l-1.36-1.36,2.24-2.24,1.36,1.36c.2,.2,.45,.29,.71,.29s.51-.1,.71-.29c.39-.39,.39-1.02,0-1.41l-1.36-1.36,2.24-2.24,1.36,1.36c.2,.2,.45,.29,.71,.29s.51-.1,.71-.29c.39-.39,.39-1.02,0-1.41l-1.4-1.4c2.81-3.52,2.59-8.68-.67-11.94Zm-13.85,23.71c-3.06,0-6.91,1.08-9.06,4.15l-2.39,4.14c-.86,1.23-2.22,2.02-3.72,2.15-1.42,.13-2.75-.34-3.73-1.33l-.09-.09c-.99-1-1.46-2.35-1.32-3.78,.14-1.49,.92-2.83,2.14-3.68,.35-.24,1.21-.63,1.98-.97,.9-.4,1.75-.78,2.25-1.12,3.04-2.09,4.12-6.12,4.12-9.36l8.75-8.75s0,0,0,0,0,0,0,0l3.66-3.66c2.72-2.72,7.14-2.72,9.86,0,1.32,1.32,2.04,3.07,2.04,4.93s-.72,3.61-2.04,4.93l-12.44,12.44Z"/><path class="cls-1" d="M17.34,42.06h0c-.61,.61-.95,1.43-.95,2.3s.34,1.68,.95,2.3,1.47,.95,2.3,.95,1.67-.32,2.3-.95c1.27-1.27,1.27-3.33,0-4.6-1.23-1.23-3.37-1.23-4.6,0Zm3.18,3.18c-.49,.49-1.28,.49-1.77,0-.24-.24-.37-.55-.37-.88s.13-.65,.37-.88h0c.24-.24,.55-.37,.88-.37s.65,.13,.88,.37c.49,.49,.49,1.28,0,1.77Z"/><path class="cls-1" d="M41.04,20.52c.43,0,.82-.28,.96-.71,.16-.53-.14-1.09-.66-1.25l-1.89-.58c-.53-.16-1.09,.13-1.25,.66s.14,1.09,.66,1.25l1.89,.58c.1,.03,.2,.04,.29,.04Z"/><path class="cls-1" d="M37.38,24.18c.43,0,.82-.28,.96-.71,.16-.53-.14-1.09-.66-1.25l-1.88-.58c-.53-.16-1.09,.14-1.25,.66-.16,.53,.14,1.09,.66,1.25l1.88,.58c.1,.03,.2,.04,.29,.04Z"/><path class="cls-1" d="M33.72,27.84c.43,0,.82-.28,.96-.71,.16-.53-.14-1.09-.66-1.25l-1.88-.58c-.53-.16-1.09,.13-1.25,.66s.14,1.09,.66,1.25l1.88,.58c.1,.03,.2,.04,.29,.04Z"/><path class="cls-1" d="M30.35,29.54l-1.89-.58c-.53-.16-1.09,.13-1.25,.66-.16,.53,.14,1.09,.66,1.25l1.89,.58c.1,.03,.2,.04,.29,.04,.43,0,.82-.28,.96-.71,.16-.53-.14-1.09-.66-1.25Z"/><path class="cls-1" d="M45.43,22.67c-.16-.53-.72-.83-1.25-.66-.53,.16-.83,.72-.66,1.25l.58,1.88c.13,.43,.53,.71,.96,.71,.1,0,.2-.01,.29-.04,.53-.16,.83-.72,.66-1.25l-.58-1.88Z"/><path class="cls-1" d="M41.77,26.33c-.16-.53-.72-.83-1.25-.66-.53,.16-.82,.72-.66,1.25l.58,1.88c.13,.43,.53,.71,.96,.71,.1,0,.2-.01,.29-.04,.53-.16,.82-.72,.66-1.25l-.58-1.88Z"/><path class="cls-1" d="M38.11,29.99c-.16-.53-.72-.83-1.25-.66-.53,.16-.83,.72-.66,1.25l.58,1.88c.13,.43,.53,.71,.96,.71,.1,0,.2-.01,.29-.04,.53-.16,.83-.72,.66-1.25l-.58-1.88Z"/><path class="cls-1" d="M34.46,33.65c-.16-.53-.72-.83-1.25-.66-.53,.16-.83,.72-.66,1.25l.58,1.88c.13,.43,.53,.71,.96,.71,.1,0,.2-.01,.29-.04,.53-.16,.83-.72,.66-1.25l-.58-1.88Z"/></svg>