<?xml version="1.0" encoding="UTF-8"?><svg id="Layer_2" xmlns="http://www.w3.org/2000/svg" viewBox="0 0 64 64"><defs><style>.cls-1{fill:#747987;}</style></defs><path class="cls-1" d="M21.89,55.08c.2,.2,.45,.29,.71,.29s.51-.1,.71-.29l1.74-1.74c1.04-1.04,1.11-2.74,.16-3.86l-6-7.06c-.21-.24-.19-.61,.03-.83,.23-.23,.59-.24,.83-.03l7.24,6.16c1.02,.87,2.56,.81,3.51-.14,.95-.95,1.01-2.49,.14-3.51l-6.16-7.24c-.21-.24-.19-.61,.03-.83,.23-.23,.59-.24,.83-.03l7.24,6.16c1.02,.87,2.56,.81,3.51-.14,.95-.95,1.01-2.49,.14-3.51l-6.16-7.24c-.21-.24-.19-.61,.03-.83,.23-.23,.59-.24,.83-.03l7.24,6.16c1.02,.87,2.56,.8,3.51-.14,.95-.95,1.01-2.49,.14-3.51l-6.16-7.24c-.21-.24-.19-.61,.03-.83,.23-.22,.59-.24,.83-.03l7.24,6.16c1.02,.87,2.56,.81,3.51-.14,.95-.95,1.01-2.49,.14-3.51l-6.16-7.24c-.21-.24-.19-.61,.03-.83,.23-.23,.59-.24,.83-.03l7.06,6c1.12,.95,2.82,.89,3.86-.16l1.74-1.74c.39-.39,.39-1.02,0-1.41l-12.5-12.5h0c-.98-.98-2.7-.98-3.68,0L9.39,38.9c-.49,.49-.76,1.15-.76,1.84s.27,1.35,.76,1.84l12.5,12.5Zm-11.08-14.77L40.31,10.8c.11-.11,.27-.18,.43-.18s.31,.06,.43,.18l11.79,11.79-1.03,1.03c-.31,.31-.82,.33-1.15,.05l-7.06-6c-1.03-.88-2.59-.81-3.54,.14-.96,.96-1.02,2.51-.14,3.54l6.16,7.24c.2,.23,.18,.58-.03,.8-.22,.22-.57,.23-.79,.03l-7.24-6.16c-1.03-.88-2.59-.81-3.54,.14-.96,.96-1.02,2.51-.14,3.54l6.16,7.24c.2,.23,.18,.58-.03,.8-.21,.22-.57,.23-.79,.03l-7.24-6.16c-1.03-.88-2.59-.81-3.54,.14-.96,.96-1.02,2.51-.14,3.54l6.16,7.24c.2,.23,.18,.58-.03,.8-.21,.21-.56,.23-.79,.03l-7.24-6.16c-1.03-.88-2.59-.81-3.54,.14-.96,.96-1.02,2.51-.14,3.54l6.16,7.24c.2,.23,.18,.58-.03,.8s-.57,.23-.79,.03l-7.24-6.16c-1.03-.88-2.59-.81-3.54,.14s-1.02,2.51-.14,3.54l6,7.06c.28,.33,.26,.84-.05,1.15l-1.03,1.03-11.79-11.79c-.11-.11-.18-.27-.18-.43s.06-.31,.18-.43Z"/></svg>