<?xml version="1.0" encoding="UTF-8"?><svg id="Layer_2" xmlns="http://www.w3.org/2000/svg" viewBox="0 0 64 64"><defs><style>.cls-1{fill:#747987;}</style></defs><path class="cls-1" d="M44.46,12.42l-12.95,12.95c1.53-3.74,4.23-9.22,8.13-13.11,.39-.39,.39-1.02,0-1.41s-1.02-.39-1.41,0c-5.47,5.47-8.62,13.59-9.71,16.78-1.78-1.02-4-1.08-5.84-.03l-5.02,2.87c-.48,.27-.65,.89-.37,1.36,.18,.32,.52,.5,.87,.5,.17,0,.34-.04,.5-.13l5.02-2.87c1.21-.7,2.69-.66,3.86,.02l-2.02,2.02c-.39,.39-.39,1.02,0,1.41s1.02,.39,1.41,0L45.88,13.83c.51-.51,1.33-.51,1.83,0,.51,.51,.51,1.33,0,1.83l-18.95,18.95c-.39,.39-.39,1.02,0,1.41,.2,.2,.45,.29,.71,.29s.51-.1,.71-.29l18.95-18.95c1.29-1.29,1.29-3.38,0-4.66-1.29-1.29-3.38-1.28-4.66,0Z"/><path class="cls-1" d="M18.2,53.24c.71,.14,1.43,.21,2.15,.21,2.28,0,4.53-.69,6.42-2.01l17.23-11.98c.94-.65,2.23-.51,3,.35,.41,.46,.62,1.05,.58,1.67s-.32,1.18-.79,1.58l-5.71,4.92c-.42,.36-.47,.99-.11,1.41,.36,.42,.99,.47,1.41,.11l5.71-4.92c.88-.76,1.41-1.81,1.48-2.97,.07-1.16-.31-2.27-1.09-3.14-1.44-1.6-3.86-1.88-5.63-.65l-17.23,11.98c-2.04,1.42-4.61,1.96-7.05,1.47-1-.2-1.84-.83-2.31-1.73-.44-.85-.49-1.84-.15-2.72l.46-.46c.46,.24,.97,.38,1.5,.38,.88,0,1.71-.34,2.33-.97l6.7-6.69,.77,.77c.2,.2,.45,.29,.71,.29s.51-.1,.71-.29c.39-.39,.39-1.02,0-1.41l-1.47-1.47-3.25-3.25-1.47-1.47c-.39-.39-1.02-.39-1.41,0s-.39,1.02,0,1.41l.77,.77-6.69,6.69c-.62,.62-.97,1.45-.97,2.33,0,.53,.14,1.04,.38,1.5l-.6,.6c-.09,.09-.16,.19-.21,.3-.66,1.49-.62,3.17,.13,4.62s2.1,2.46,3.7,2.77Zm-1.02-10.71l6.69-6.7,1.83,1.83-6.7,6.69c-.49,.49-1.34,.49-1.83,0-.25-.24-.38-.57-.38-.92s.13-.67,.38-.92Z"/></svg>