<?xml version="1.0" encoding="UTF-8"?><svg id="Layer_2" xmlns="http://www.w3.org/2000/svg" viewBox="0 0 64 64"><defs><style>.cls-1{fill:#747987;}</style></defs><path class="cls-1" d="M46.07,36.14c-.08-.81-.31-1.61-.72-2.34l-5.22-9.31v-4.38c0-.55-.45-1-1-1h-3.83v-3.38h2.04c.55,0,1-.45,1-1s-.45-1-1-1h-2.04v-2.24c0-.55-.45-1-1-1h-4.9c-.55,0-1,.45-1,1v2.33l-7.34,.72c-.42-.85-1.22-1.51-2.27-1.82-1.08-.31-2.32-.24-3.5,.19-1.18,.43-2.17,1.17-2.8,2.1-.69,1.01-.87,2.17-.51,3.17,.53,1.46,2.04,2.31,3.81,2.31,.68,0,1.39-.12,2.11-.38,1.18-.43,2.17-1.17,2.8-2.1,.32-.47,.52-.98,.62-1.48l7.08-.7v3.27h-3.83c-.55,0-1,.45-1,1v4.38l-5.22,9.31c-.43,.76-.65,1.59-.72,2.44,0,.03-.02,.06-.02,.1,0,.03,.01,.05,.01,.07-.03,.59,0,1.19,.16,1.78l3.36,12.87c.38,1.44,1.68,2.45,3.17,2.45h15.04c1.49,0,2.8-1.01,3.17-2.45l3.36-12.87c.15-.57,.18-1.14,.16-1.71,0-.05,.03-.09,.03-.14,0-.07-.03-.13-.04-.19ZM19.06,16.9c-.39,.57-1.06,1.06-1.83,1.34-1.48,.54-3.02,.2-3.36-.72-.2-.54,.09-1.09,.28-1.37,.39-.57,1.06-1.06,1.83-1.34,.47-.17,.95-.26,1.41-.26,.3,0,.59,.04,.86,.11,.32,.09,.9,.33,1.09,.87,.2,.54-.09,1.09-.28,1.37Zm24.8,18.44h-5.84l-2.42-9.58h2.96l5.06,9.03c.1,.18,.18,.37,.25,.56Zm-8.04,2h.38l-2.71,14.17h-3.25l-2.71-14.17h.38c.55,0,1-.45,1-1s-.45-1-1-1h-.13l2.42-9.58h3.34l2.42,9.58h-.13c-.55,0-1,.45-1,1s.45,1,1,1Zm-5.41-24.84h2.9v6.62h-2.9v-6.62Zm-4.83,8.62h12.56v2.64h-12.56v-2.64Zm-.41,4.64h2.96l-2.42,9.58h-5.84c.07-.19,.15-.38,.25-.56l5.06-9.03Zm-2.07,24.8l-3.36-12.87c-.03-.11-.04-.23-.06-.34h5.81l2.71,14.17h-3.86c-.58,0-1.09-.39-1.24-.96Zm17.52,0c-.15,.56-.66,.96-1.24,.96h-3.86l2.71-14.17h5.81c-.02,.11-.03,.23-.06,.34l-3.36,12.87Z"/><path class="cls-1" d="M31.59,35.34c-.54-.04-1.01,.39-1.05,.93-.04,.55,.38,1.03,.93,1.06,.04,0,.19,0,.35,0,.19,0,.38,0,.38,0l-.02-2s-.47,0-.59,0Z"/><path class="cls-1" d="M46.3,8.92l-5.45,1.89c-.52,.18-.8,.75-.62,1.27,.14,.41,.53,.67,.94,.67,.11,0,.22-.02,.33-.06l5.45-1.89c.52-.18,.8-.75,.62-1.27s-.75-.8-1.27-.62Z"/><path class="cls-1" d="M47.95,18.23l-5.68-1.22c-.54-.12-1.07,.23-1.19,.77s.23,1.07,.77,1.19l5.68,1.22c.07,.02,.14,.02,.21,.02,.46,0,.88-.32,.98-.79,.12-.54-.23-1.07-.77-1.19Z"/><path class="cls-1" d="M50.48,13.12l-8.48,.6c-.55,.04-.97,.52-.93,1.07,.04,.53,.48,.93,1,.93,.02,0,.05,0,.07,0l8.48-.6c.55-.04,.97-.52,.93-1.07-.04-.55-.5-.97-1.07-.93Z"/></svg>