<?xml version="1.0" encoding="UTF-8"?><svg id="Layer_2" xmlns="http://www.w3.org/2000/svg" viewBox="0 0 64 64"><defs><style>.cls-1{fill:#747987;}</style></defs><path class="cls-1" d="M19.82,54.87h18.27c2.13,0,3.85-1.73,3.85-3.85V30.45c0-2.13-1.73-3.85-3.85-3.85h-1.57v-5.46c0-.55-.45-1-1-1h-1.82v-3.43h5.05c.71,2.58,2.17,5.3,5.12,6.92,.15,.08,.32,.12,.48,.12,.35,0,.7-.19,.88-.52,.27-.48,.09-1.09-.4-1.36-2.15-1.18-3.33-3.17-3.97-5.17h4.29c.55,0,1-.45,1-1v-5.57c0-.55-.45-1-1-1H22.54c-3.62,0-6.57,2.95-6.57,6.57,0,.55,.45,1,1,1h4.27c1.64,0,2.98,1.34,2.98,2.98v.46h-1.82c-.55,0-1,.45-1,1v5.46h-1.57c-2.13,0-3.85,1.73-3.85,3.85v20.57c0,2.13,1.73,3.85,3.85,3.85ZM44.15,14.7h-3.77c-.24-1.45-.27-2.75-.24-3.57h4.01v3.57Zm-22.92,0h-3.16c.46-2.04,2.28-3.57,4.46-3.57h15.59c-.03,.86,0,2.13,.21,3.57h-5.63c-.55,0-1,.45-1,1v4.43h-5.49v-.46c0-2.74-2.23-4.98-4.98-4.98Zm2.16,7.43h11.13v4.46h-11.13v-4.46Zm-5.42,8.32c0-1.02,.83-1.85,1.85-1.85h18.27c1.02,0,1.85,.83,1.85,1.85v20.57c0,1.02-.83,1.85-1.85,1.85H19.82c-1.02,0-1.85-.83-1.85-1.85V30.45Z"/><path class="cls-1" d="M22.39,45.04h13.13c.55,0,1-.45,1-1v-6.01c0-.55-.45-1-1-1h-13.13c-.55,0-1,.45-1,1v6.01c0,.55,.45,1,1,1Zm1-6.01h11.13v4.01h-11.13v-4.01Z"/></svg>