<?xml version="1.0" encoding="UTF-8"?><svg id="Layer_2" xmlns="http://www.w3.org/2000/svg" viewBox="0 0 64 64"><defs><style>.cls-1{fill:#747987;}</style></defs><path class="cls-1" d="M20.66,25.75c2.31,0,4.2-1.88,4.2-4.2s-1.88-4.2-4.2-4.2-4.2,1.88-4.2,4.2,1.88,4.2,4.2,4.2Zm0-6.39c1.21,0,2.2,.99,2.2,2.2s-.99,2.2-2.2,2.2-2.2-.99-2.2-2.2,.99-2.2,2.2-2.2Z"/><path class="cls-1" d="M17.14,52.25c.1,0,.19,0,.29,0,3.02,0,5.58-2.43,5.77-5.54,0-.09,0-.17,0-.26h2.82c.28,0,.55-.12,.74-.33,.19-.21,.28-.49,.26-.76l-.48-5.31,2.07-.16c.26-.02,.51-.14,.68-.34s.26-.46,.24-.73l-.39-5.18c-.02-.26-.14-.51-.35-.68-.2-.17-.46-.26-.73-.24l-2.18,.17-.21-2.28,13.23-2.39c.11,.08,.22,.15,.36,.19l4.87,1.25c.08,.02,.17,.03,.25,.03,.22,0,.44-.07,.61-.21,.24-.19,.39-.48,.39-.79V14.52c0-.31-.14-.6-.39-.79-.25-.19-.56-.26-.86-.18l-4.87,1.25c-.08,.02-.15,.06-.22,.1l-15.58-2.82h-.04c-.8-.22-1.63-.33-2.47-.33,0,0-.01,0-.02,0-5.39,0-9.76,4.4-9.76,9.8,0,2.89,1.25,5.56,3.42,7.43l1.13,12.54c.24,2.78,2.62,4.95,5.42,4.95h.06s0,.08,0,.13c-.13,2.08-1.91,3.75-3.96,3.65-.96-.05-2.27-.47-2.5-3.56-.4-5.29-1.55-8.83-3.64-11.14-.37-.41-1-.44-1.41-.07-.41,.37-.44,1-.07,1.41,1.77,1.96,2.76,5.13,3.13,9.95,.34,4.53,2.9,5.33,4.39,5.41Zm26.25-24.84l-2.87-.73v-10.13l2.87-.73v11.6Zm-30.21-5.86c0-4.28,3.46-7.76,7.72-7.8l1.12,.15,1.19,.16s.01,0,.02,0l15.3,2.77v9.44l-14.08,2.54s-.01,0-.02,0l-1.22,.22-2.31,.32c-.43,0-.84-.04-1.26-.11-.14-.02-.28-.07-.41-.11-.27-.06-.54-.12-.79-.21-.16-.06-.32-.14-.48-.21-.22-.09-.45-.18-.67-.3-.16-.09-.32-.2-.48-.3-.2-.13-.4-.24-.59-.39-.01-.01-.03-.03-.04-.04-1.9-1.49-3-3.73-3-6.15Zm4.54,19.79l-.98-10.94s.08,.03,.12,.05c.26,.12,.53,.23,.8,.33,.04,.01,.07,.03,.11,.04,.31,.11,.62,.19,.93,.27,.09,.02,.18,.04,.27,.06,.24,.05,.48,.09,.73,.12,.1,.01,.19,.03,.29,.04,.33,.03,.66,.05,.99,.05,.05,0,.09,0,.14,0h0c.8-.01,1.6-.12,2.39-.33h.03s.18-.04,.18-.04l.28,3.09c.05,.54,.51,.95,1.07,.91l2.16-.16,.24,3.18-2.08,.16c-.27,.02-.52,.15-.69,.35-.17,.2-.26,.47-.23,.74l.47,5.23h-3.79c-1.77,0-3.27-1.37-3.42-3.13Z"/><path class="cls-1" d="M19.57,33.42c-.55,.05-.95,.54-.9,1.09l.46,4.78c.05,.52,.48,.9,.99,.9,.03,0,.06,0,.1,0,.55-.05,.95-.54,.9-1.09l-.46-4.78c-.05-.55-.53-.97-1.09-.9Z"/><path class="cls-1" d="M53.64,20.61h-5.67c-.55,0-1,.45-1,1s.45,1,1,1h5.67c.55,0,1-.45,1-1s-.45-1-1-1Z"/><path class="cls-1" d="M48.56,20.06l5.52-4.14c.44-.33,.53-.96,.2-1.4-.33-.44-.96-.53-1.4-.2l-5.52,4.14c-.44,.33-.53,.96-.2,1.4,.2,.26,.5,.4,.8,.4,.21,0,.42-.06,.6-.2Z"/><path class="cls-1" d="M48.56,23.16c-.44-.33-1.07-.24-1.4,.2-.33,.44-.24,1.07,.2,1.4l5.52,4.14c.18,.13,.39,.2,.6,.2,.3,0,.6-.14,.8-.4,.33-.44,.24-1.07-.2-1.4l-5.52-4.14Z"/></svg>