<?xml version="1.0" encoding="UTF-8"?><svg id="Layer_2" xmlns="http://www.w3.org/2000/svg" viewBox="0 0 64 64"><defs><style>.cls-1{fill:#747987;}</style></defs><path class="cls-1" d="M37.11,53.7c-.16,.53,.13,1.09,.66,1.25,.1,.03,.2,.04,.3,.04,.43,0,.82-.27,.95-.7l1.15-3.68c.58-1.88,.42-3.88-.5-5.72-.77-1.54-.78-3.38-.03-4.93,.92-1.9,1.01-4.11,.24-6.08l-.04-.1c-.46-1.17-.51-2.48-.13-3.68l.46-1.48c.58-1.88,.42-3.88-.5-5.72-.77-1.54-.78-3.38-.03-4.93,.92-1.9,1.01-4.11,.24-6.08l-.88-2.25c-.2-.51-.78-.77-1.3-.56-.51,.2-.77,.78-.56,1.3l.88,2.24c.57,1.44,.5,3.07-.18,4.47-1.03,2.1-1.01,4.61,.08,6.78,.65,1.29,.77,2.77,.34,4.15l-.46,1.48c-.51,1.64-.45,3.41,.18,5.01l.04,.1c.57,1.44,.5,3.07-.18,4.47-1.03,2.11-1.01,4.61,.08,6.79,.65,1.29,.77,2.77,.34,4.15l-1.15,3.68Z"/><path class="cls-1" d="M46.15,11.89l-.88-2.25c-.2-.51-.78-.77-1.3-.57-.51,.2-.77,.78-.57,1.3l.88,2.25c.57,1.44,.5,3.07-.18,4.47-1.03,2.11-1.01,4.61,.08,6.78,.65,1.29,.77,2.77,.34,4.15l-.46,1.48c-.51,1.64-.44,3.42,.18,5.01l.04,.1c.57,1.44,.5,3.07-.18,4.47-1.03,2.11-1.01,4.61,.08,6.79,.65,1.29,.77,2.77,.34,4.15l-1.15,3.68c-.16,.53,.13,1.09,.66,1.25,.1,.03,.2,.04,.3,.04,.43,0,.82-.27,.95-.7l1.15-3.68c.58-1.88,.42-3.88-.5-5.72-.77-1.54-.78-3.38-.03-4.93,.92-1.9,1.01-4.11,.24-6.08l-.04-.1c-.46-1.17-.51-2.48-.13-3.68l.46-1.48c.58-1.88,.42-3.88-.5-5.72-.77-1.54-.78-3.38-.03-4.93,.92-1.9,1.01-4.11,.24-6.07Z"/><path class="cls-1" d="M52.71,28.61c.58-1.88,.42-3.88-.5-5.72-.77-1.54-.78-3.38-.03-4.93,.92-1.9,1.01-4.11,.24-6.07l-.88-2.25c-.2-.51-.78-.77-1.3-.57-.51,.2-.77,.78-.57,1.3l.88,2.25c.57,1.44,.5,3.07-.18,4.47-1.03,2.1-1.01,4.61,.08,6.78,.65,1.29,.77,2.77,.34,4.15l-.46,1.48c-.51,1.64-.45,3.41,.18,5.01l.04,.1c.57,1.44,.5,3.07-.18,4.47-1.03,2.11-1.01,4.61,.08,6.79,.65,1.29,.77,2.77,.34,4.15l-1.15,3.68c-.16,.53,.13,1.09,.66,1.25,.1,.03,.2,.04,.3,.04,.43,0,.82-.27,.95-.7l1.15-3.68c.58-1.88,.42-3.88-.5-5.72-.77-1.54-.78-3.38-.03-4.93,.92-1.9,1.01-4.11,.24-6.07l-.04-.1c-.46-1.17-.51-2.48-.13-3.68l.46-1.48Z"/><path class="cls-1" d="M18.35,45.58c1.27-.58,2.23-1.62,2.63-2.85,.37-1.16,.24-2.39-.38-3.46-.49-.85-1.25-1.51-2.13-1.93l4.91-2.22,12.43,5.62c.13,.06,.27,.09,.41,.09,.38,0,.74-.22,.91-.59,.23-.5,0-1.1-.5-1.32l-10.83-4.9,10.83-4.89c.5-.23,.73-.82,.5-1.32-.23-.5-.82-.73-1.32-.5l-1.79,.81c.41-1.73,.21-3.54-.63-5.23-.39-.76-.59-1.61-.59-2.48s.2-1.69,.57-2.44c.92-1.9,1.01-4.12,.24-6.08l-.88-2.24c-.2-.51-.78-.77-1.3-.56-.51,.2-.77,.78-.56,1.3l.88,2.24c.57,1.44,.5,3.08-.17,4.47-.51,1.01-.78,2.17-.78,3.33s.28,2.35,.85,3.46c.65,1.3,.77,2.78,.34,4.16l-.37,1.18-4.68,2.11c.03-.42,.11-.83,.23-1.22l.46-1.48c.59-1.87,.43-3.88-.5-5.74-.39-.76-.59-1.61-.59-2.48s.2-1.69,.57-2.44c.92-1.9,1.01-4.12,.24-6.09l-.89-2.24c-.2-.51-.78-.77-1.3-.56-.51,.2-.76,.79-.56,1.3l.89,2.24c.57,1.44,.5,3.08-.17,4.47-.51,1.01-.78,2.17-.78,3.33s.28,2.35,.85,3.46c.65,1.3,.77,2.78,.34,4.16l-.46,1.48c-.27,.87-.38,1.8-.32,2.72l-1.55,.7-4.91-2.22c.88-.42,1.64-1.07,2.13-1.93,.62-1.07,.75-2.3,.38-3.46-.4-1.24-1.36-2.28-2.63-2.85-2.48-1.12-5.54-.22-6.82,2-.62,1.07-.75,2.3-.38,3.46,.4,1.24,1.36,2.28,2.63,2.85,.17,.08,.34,.14,.51,.2,.04,.03,.07,.06,.12,.09l6.55,2.96-6.55,2.96c-.08,.03-.13,.09-.19,.14-.14,.05-.29,.08-.43,.15-1.27,.58-2.23,1.62-2.63,2.85-.37,1.16-.24,2.39,.38,3.46,.91,1.57,2.71,2.48,4.56,2.48,.76,0,1.54-.16,2.26-.48Zm-5.3-18.27c-.2-.62-.13-1.27,.21-1.85,.55-.95,1.65-1.49,2.79-1.49,.5,0,1,.1,1.47,.31,.77,.35,1.32,.93,1.55,1.64,.2,.62,.13,1.27-.21,1.85-.78,1.36-2.7,1.89-4.27,1.18-.77-.35-1.32-.93-1.55-1.64Zm.21,15.27c-.33-.58-.41-1.23-.21-1.85,.23-.71,.78-1.3,1.55-1.64,.47-.21,.98-.31,1.47-.31,1.15,0,2.25,.54,2.79,1.49,.33,.58,.41,1.23,.21,1.85-.23,.71-.78,1.3-1.55,1.64-1.57,.71-3.48,.18-4.27-1.18Z"/></svg>