<?xml version="1.0" encoding="UTF-8"?><svg id="Layer_2" xmlns="http://www.w3.org/2000/svg" viewBox="0 0 64 64"><defs><style>.cls-1{fill:#747987;}</style></defs><path class="cls-1" d="M54.71,33.05l-7.72-2.62c-1.37-1.34-4.52-3.12-7.84-1.23-2.25,1.28-5.58,1.49-8.31,.51-1.91-.69-3.27-1.85-3.81-3.29-.73-1.92-2.06-3.17-3.67-3.45-.95-.17-1.9,.04-2.69,.57l-7-7c-.32-.32-.81-.38-1.2-.16-2.39,1.35-3.88,3.89-3.88,6.63,0,2.11,.87,4.03,2.26,5.41v11.39c0,.55,.45,1,1,1h6.9v2.41c0,.55,.45,1,1,1h1.48v2.56c0,.55,.45,1,1,1h2.83c.55,0,1-.45,1-1v-2.56h14.78v2.56c0,.55,.45,1,1,1h2.83c.55,0,1-.45,1-1v-2.56h.76c.55,0,1-.45,1-1v-4.75l6.77,1.17c.06,0,.11,.01,.17,.01,.23,0,.46-.08,.64-.24,.23-.19,.36-.47,.36-.76v-4.64c0-.43-.27-.81-.68-.95ZM10.61,23c0-1.77,.84-3.43,2.24-4.48l6.51,6.51c-.11,.22-.21,.45-.29,.68-.02,.07-.04,.13-.06,.2-.06,.2-.11,.41-.14,.62-.01,.08-.03,.16-.04,.24-.04,.28-.06,.57-.05,.87v.36c-.78,.4-1.65,.61-2.55,.61-3.09,0-5.61-2.52-5.61-5.61Zm2.26,15.8v-8.97c1.01,.5,2.15,.79,3.35,.79,.88,0,1.74-.17,2.55-.46v8.64h-5.9Zm7.9-10.23v-.95c0-.21,0-.42,.03-.62,.05-.39,.16-.74,.32-1.04,.08-.15,.17-.29,.28-.41,0,0,0,0,0,0,.42-.49,1.02-.71,1.63-.61,.89,.16,1.67,.96,2.14,2.2,.76,1.99,2.54,3.57,5.01,4.46,3.29,1.18,7.21,.92,9.97-.66,2.42-1.37,4.55,.14,5.29,.79v5.55s0,.01,0,.02v4.92h-.74s-.01,0-.02,0h-2.83s-.01,0-.02,0H25.09s-.01,0-.02,0h-2.83s-.01,0-.02,0h-1.46v-13.64Zm3.3,17.2h-.83v-1.56h.83v1.56Zm19.61,0h-.83v-1.56h.83v1.56Zm9.71-8.31l-5.94-1.03v-3.73l5.94,2.02v2.74Z"/></svg>