<?xml version="1.0" encoding="UTF-8"?><svg id="Layer_2" xmlns="http://www.w3.org/2000/svg" viewBox="0 0 64 64"><defs><style>.cls-1{fill:#747987;}</style></defs><path class="cls-1" d="M17.86,40.41h0c-.72,.71-.73,1.88-.02,2.6,.36,.37,.84,.55,1.31,.55s.93-.17,1.29-.53c.72-.71,.73-1.88,.02-2.6-.71-.72-1.88-.73-2.6-.02Zm1.18,1.43c-.06-.06-.06-.16,0-.23l.22,.23c-.06,.06-.16,.06-.22,0Zm.23,0l-.22-.23c.06-.06,.16-.06,.22,0,.06,.06,.06,.16,0,.22Z"/><path class="cls-1" d="M50.18,21.73s-.01-.01-.02-.02c0,0,0-.02-.01-.02l-2.16-2.57c-.35-.41-.96-.47-1.39-.14l-12.12,9.63c-.21,.17-.35,.42-.37,.68s.06,.54,.23,.74l1.51,1.79-10.66,8.48c-.25-1.07-.78-2.1-1.61-2.94-.81-.83-1.82-1.39-2.92-1.66l8.73-10.65,1.69,1.71c.19,.19,.44,.3,.71,.3,.02,0,.03,0,.05,0,.28-.01,.55-.15,.73-.37l9.67-11.8c.32-.4,.3-.97-.06-1.34l-2.46-2.5s-.04-.02-.05-.03c-.02-.01-.03-.04-.04-.05l-1.87-1.47c-.83-.65-1.86-.95-2.91-.82-1.05,.12-1.98,.65-2.62,1.46L14.27,31.92c-2.03,2.58-2.8,5.88-2.06,8.85,.19,.78,.48,1.46,.83,2.06,.16,.9,.52,1.74,1.05,2.48-.96,1.05-2.57,3.21-2.51,5.85,.03,1.39,.75,2.57,2.02,3.32,.98,.58,2.21,.86,3.56,.86,1.86,0,3.94-.54,5.93-1.59,1.34-.71,2.41-1.37,3.36-1.96,2.53-1.57,3.68-2.28,6.04-1.51,4.4,1.44,12.91-1.89,15.73-10.18,.18-.52-.1-1.09-.63-1.27-.52-.18-1.09,.1-1.27,.63-2.47,7.28-10.07,9.95-13.21,8.92-3.25-1.06-5.12,.1-7.72,1.71-.92,.57-1.96,1.21-3.24,1.89-3.22,1.7-6.11,1.61-7.54,.77-.67-.39-1.02-.94-1.03-1.64-.04-1.89,1.16-3.54,1.92-4.38,.73,.53,1.55,.9,2.43,1.07,1.43,.77,3,1.15,4.59,1.15,2.2,0,4.43-.73,6.31-2.15l22.04-17.65c.84-.64,1.38-1.56,1.52-2.61,.14-1.04-.13-2.08-.77-2.92l-1.44-1.9Zm-3.1-.58l.87,1.04-10.56,8.38-.87-1.04,10.56-8.38Zm-24.99,23.58c-.8,.79-1.9,1.18-2.99,1.21-1.12,0-2.18-.46-2.97-1.26-.79-.8-1.22-1.86-1.21-2.99s.46-2.18,1.26-2.96t0,0c.79-.78,1.84-1.21,2.95-1.21h.04c1.12,0,2.18,.46,2.97,1.26,1.63,1.66,1.6,4.33-.05,5.95Zm9.63-20.16l-1.05-1.06,8.39-10.25,1.05,1.07-8.39,10.25Zm-15.9,8.6L33.78,11.4c.32-.41,.78-.67,1.3-.73,.52-.06,1.02,.08,1.43,.4l1.07,.84-19.41,23.67c-1.26,.19-2.45,.79-3.38,1.71-.33,.32-.61,.67-.85,1.05,.03-1.81,.69-3.65,1.88-5.17Zm34.58-6.9c-.07,.51-.34,.97-.77,1.3l-22.04,17.65c-1.51,1.15-3.3,1.71-5.08,1.71,.35-.23,.68-.49,.99-.79,.95-.94,1.54-2.11,1.75-3.34l23.95-19.06,.82,1.08c.31,.41,.45,.92,.38,1.44Z"/></svg>