<?xml version="1.0" encoding="UTF-8"?><svg id="Layer_2" xmlns="http://www.w3.org/2000/svg" viewBox="0 0 64 64"><defs><style>.cls-1{fill:#747987;}</style></defs><path class="cls-1" d="M31.99,34.56c6.04,0,10.55-6.18,10.55-11.71,0-5.82-4.73-10.55-10.55-10.55s-10.55,4.73-10.55,10.55,4.51,11.71,10.55,11.71Zm0-20.26c4.72,0,8.55,3.84,8.55,8.55s-3.66,9.71-8.55,9.71-8.55-5.13-8.55-9.71,3.84-8.55,8.55-8.55Z"/><path class="cls-1" d="M26.82,38.2c-.52,2.63-2.14,11.01-2.46,13.99-.11,1.04,.49,2.02,1.45,2.38,2.06,.77,4.13,1.15,6.19,1.15,2.06,0,4.12-.38,6.16-1.15,.96-.36,1.56-1.34,1.44-2.45l-2.46-13.91c5.14-2.5,9.49-9.41,9.49-15.28,0-4.15-1.77-8.12-4.87-10.9-3.14-2.81-7.19-4.11-11.4-3.65-6.53,.71-11.94,5.94-12.86,12.43-.92,6.52,3.46,14.56,9.32,17.4Zm-7.34-17.11c.79-5.6,5.46-10.11,11.09-10.72,.48-.05,.96-.08,1.43-.08,3.12,0,6.07,1.12,8.42,3.23,2.67,2.4,4.2,5.83,4.2,9.41,0,5.33-4.28,11.89-8.98,13.75-.44,.18-.7,.64-.62,1.1l2.59,14.61c.01,.13-.05,.26-.16,.3-3.61,1.36-7.29,1.36-10.94,0-.11-.04-.18-.16-.16-.29,.36-3.39,2.56-14.48,2.58-14.59,.09-.47-.16-.95-.61-1.12-5.38-2.13-9.68-9.71-8.85-15.59Z"/><path class="cls-1" d="M29.31,26.81c.17,.12,.37,.18,.57,.18,.32,0,.63-.15,.82-.43l4.53-6.57c.31-.45,.2-1.08-.26-1.39-.45-.31-1.08-.2-1.39,.26l-4.53,6.57c-.31,.45-.2,1.08,.26,1.39Z"/><path class="cls-1" d="M28.22,23.16c.32,0,.63-.15,.82-.43l2.23-3.23c.31-.45,.2-1.08-.26-1.39-.45-.31-1.08-.2-1.39,.26l-2.23,3.23c-.31,.45-.2,1.08,.26,1.39,.17,.12,.37,.18,.57,.18Z"/><path class="cls-1" d="M33.04,25.78c-.31,.45-.2,1.08,.26,1.39,.17,.12,.37,.18,.57,.18,.32,0,.63-.15,.82-.43l2.23-3.23c.31-.45,.2-1.08-.26-1.39-.45-.31-1.08-.2-1.39,.26l-2.23,3.23Z"/><path class="cls-1" d="M31.99,46.92c-1.42,0-2.58,1.16-2.58,2.58s1.16,2.58,2.58,2.58,2.58-1.16,2.58-2.58-1.16-2.58-2.58-2.58Zm0,3.15c-.32,0-.58-.26-.58-.58s.26-.58,.58-.58,.58,.26,.58,.58-.26,.58-.58,.58Z"/></svg>