<?xml version="1.0" encoding="UTF-8"?><svg id="Layer_2" xmlns="http://www.w3.org/2000/svg" viewBox="0 0 64 64"><defs><style>.cls-1{fill:#747987;}</style></defs><path class="cls-1" d="M25.29,18.56c-1.6,1.62-2.55,3.72-2.73,5.96h-.67c-1.86,0-3.37,1.51-3.37,3.37v20.78c0,3.44,2.8,6.24,6.24,6.24h14.45c3.44,0,6.24-2.8,6.24-6.24V27.88c0-1.86-1.51-3.37-3.37-3.37h-.67c-.3-3.76-2.79-6.9-6.2-8.14v-5.26h6.05c.55,0,1-.45,1-1s-.45-1-1-1h-7.04s0,0,0,0h-4.48s0,0,0,0h-4.03c-1.94,0-3.76,.76-5.14,2.13l-1.76,1.76c-.39,.39-.39,1.02,0,1.41,.2,.2,.45,.29,.71,.29s.51-.1,.71-.29l1.76-1.76c.99-.99,2.32-1.54,3.72-1.54h3.04v5.26c-1.28,.47-2.47,1.2-3.47,2.19Zm-4.76,16.67h14.77v8.96h-14.77v-8.96Zm22.94-7.35v20.78c0,2.34-1.9,4.24-4.24,4.24h-14.45c-2.34,0-4.24-1.9-4.24-4.24v-2.47h15.77c.55,0,1-.45,1-1v-10.96c0-.55-.45-1-1-1h-15.77v-5.35c0-.75,.61-1.37,1.37-1.37h20.2c.75,0,1.37,.61,1.37,1.37Zm-4.03-3.37h-14.87c.17-1.71,.92-3.3,2.14-4.54,1.43-1.41,3.31-2.19,5.3-2.19,3.87,0,7.06,2.96,7.44,6.73Zm-8.68-13.41h2.48v4.77c-.41-.05-.82-.09-1.24-.09s-.83,.04-1.24,.09v-4.77Z"/></svg>