<?xml version="1.0" encoding="UTF-8"?><svg id="Layer_2" xmlns="http://www.w3.org/2000/svg" viewBox="0 0 64 64"><defs><style>.cls-1{fill:#747987;}</style></defs><path class="cls-1" d="M46.12,8.4H17.88c-1.79,0-3.24,1.45-3.24,3.24V52.36c0,1.79,1.45,3.24,3.24,3.24h28.23c1.79,0,3.24-1.45,3.24-3.24V11.64c0-1.79-1.45-3.24-3.24-3.24Zm1.24,43.95c0,.68-.56,1.24-1.24,1.24H17.88c-.68,0-1.24-.56-1.24-1.24V11.64c0-.68,.56-1.24,1.24-1.24h28.23c.68,0,1.24,.56,1.24,1.24V52.36Z"/><path class="cls-1" d="M39.2,22l-15.93,18.69c-.36,.42-.31,1.05,.11,1.41,.19,.16,.42,.24,.65,.24,.28,0,.56-.12,.76-.35l15.93-18.69c.36-.42,.31-1.05-.11-1.41-.42-.36-1.05-.31-1.41,.11Z"/><path class="cls-1" d="M24.37,34.67c.28,0,.56-.12,.76-.35l8.13-9.54c.36-.42,.31-1.05-.11-1.41-.42-.36-1.05-.31-1.41,.11l-8.13,9.54c-.36,.42-.31,1.05,.11,1.41,.19,.16,.42,.24,.65,.24Z"/><path class="cls-1" d="M38.31,30.06l-8.13,9.54c-.36,.42-.31,1.05,.11,1.41,.19,.16,.42,.24,.65,.24,.28,0,.56-.12,.76-.35l8.13-9.54c.36-.42,.31-1.05-.11-1.41-.42-.36-1.05-.31-1.41,.11Z"/></svg>