<?xml version="1.0" encoding="UTF-8"?><svg id="Layer_2" xmlns="http://www.w3.org/2000/svg" viewBox="0 0 64 64"><defs><style>.cls-1{fill:#747987;}</style></defs><path class="cls-1" d="M10.18,48.57H53.82c.55,0,1-.45,1-1v-14.33c0-.55-.45-1-1-1h-5.52l-13.33-17.96c.46-.62,.75-1.38,.75-2.21,0-2.05-1.67-3.71-3.71-3.71s-3.71,1.67-3.71,3.71c0,.83,.28,1.59,.75,2.21l-13.33,17.96h-5.52c-.55,0-1,.45-1,1v14.33c0,.55,.45,1,1,1ZM32,10.36c.94,0,1.71,.77,1.71,1.71s-.77,1.71-1.71,1.71-1.71-.77-1.71-1.71,.77-1.71,1.71-1.71Zm-1.38,5.15c.43,.17,.89,.27,1.38,.27s.96-.1,1.38-.27l12.42,16.73H18.2L30.62,15.51ZM11.18,34.24H52.82v12.33H11.18v-12.33Z"/><path class="cls-1" d="M18.5,35.42c-2.36,0-4.28,2.24-4.28,4.99s1.92,4.99,4.28,4.99,4.28-2.24,4.28-4.99-1.92-4.99-4.28-4.99Zm0,7.98c-1.26,0-2.28-1.34-2.28-2.99s1.02-2.99,2.28-2.99,2.28,1.34,2.28,2.99-1.02,2.99-2.28,2.99Z"/><path class="cls-1" d="M47.36,35.42c-.55,0-1,.45-1,1v4.81l-3.76-5.38c-.25-.36-.7-.51-1.12-.38-.42,.13-.7,.52-.7,.95v7.98c0,.55,.45,1,1,1s1-.45,1-1v-4.81l3.76,5.38c.19,.27,.5,.43,.82,.43,.1,0,.2-.02,.3-.05,.42-.13,.7-.52,.7-.95v-7.98c0-.55-.45-1-1-1Z"/><path class="cls-1" d="M28.08,35.42h-2.27c-.55,0-1,.45-1,1v7.98c0,.55,.45,1,1,1s1-.45,1-1v-2.97h1.27c1.66,0,3.01-1.35,3.01-3.01s-1.35-3.01-3.01-3.01Zm0,4.01h-1.27v-2.01h1.27c.55,0,1.01,.45,1.01,1.01s-.45,1.01-1.01,1.01Z"/><path class="cls-1" d="M37.66,37.42c.55,0,1-.45,1-1s-.45-1-1-1h-3.55c-.55,0-1,.45-1,1v7.98c0,.55,.45,1,1,1h3.55c.55,0,1-.45,1-1s-.45-1-1-1h-2.55v-1.99h2.55c.55,0,1-.45,1-1s-.45-1-1-1h-2.55v-1.99h2.55Z"/></svg>