<?xml version="1.0" encoding="UTF-8"?><svg id="Layer_2" xmlns="http://www.w3.org/2000/svg" viewBox="0 0 64 64"><defs><style>.cls-1{fill:#747987;}</style></defs><path class="cls-1" d="M36.79,15.81h-.53v-4.62c0-.55-.45-1-1-1h-6.53c-.55,0-1,.45-1,1v4.62h-.53c-1.31,0-2.38,1.07-2.38,2.38v3.58c-3.45,4.13-6.01,8.28-7.67,12.45-.03,.06-.05,.11-.07,.17-2.56,6.51-2.95,13.04-1.12,19.52,.12,.43,.51,.73,.96,.73h30.14c.46,0,.86-.31,.97-.76,3.01-12.07,.02-22.88-8.87-32.15v-3.54c0-1.31-1.07-2.38-2.38-2.38Zm-10.5,7.31h11.45c2.85,2.97,5.04,6.12,6.6,9.42-2.48,1.43-7.32,3.45-11.83,.72-4.45-2.7-9.3-1.78-12.49-.6,1.54-3.18,3.62-6.37,6.27-9.54Zm3.44-10.94h4.53v3.62h-4.53v-3.62Zm-2.91,6c0-.21,.17-.38,.38-.38h9.59c.21,0,.38,.17,.38,.38v2.93h-10.34v-2.93Zm19.45,34.45H17.7c-1.46-5.73-1.05-11.52,1.18-17.31,2.88-1.42,8.02-3.15,12.61-.36,1.98,1.2,4,1.65,5.9,1.65,3.15,0,5.95-1.22,7.76-2.23,2.23,5.66,2.62,11.76,1.14,18.26Z"/><path class="cls-1" d="M32,12.71c-.55,0-1,.45-1,1v.29c0,.55,.45,1,1,1s1-.45,1-1v-.29c0-.55-.45-1-1-1Z"/><path class="cls-1" d="M39.71,14.03h8.14c.55,0,1-.45,1-1s-.45-1-1-1h-8.14c-.55,0-1,.45-1,1s.45,1,1,1Z"/><path class="cls-1" d="M39.71,11.56c.15,0,.3-.03,.44-.1l4.07-2.01c.5-.24,.7-.84,.45-1.34-.24-.49-.84-.7-1.34-.45l-4.07,2.01c-.5,.24-.7,.84-.45,1.34,.17,.35,.53,.56,.9,.56Z"/><path class="cls-1" d="M40.15,14.59c-.5-.25-1.09-.04-1.34,.45-.25,.5-.04,1.09,.45,1.34l4.07,2.01c.14,.07,.29,.1,.44,.1,.37,0,.72-.21,.9-.56,.25-.5,.04-1.09-.45-1.34l-4.07-2.01Z"/><path class="cls-1" d="M22.36,37.46c-.47-.3-1.08-.16-1.38,.3-3.1,4.82-1.82,12.14-1.76,12.45,.09,.48,.51,.82,.98,.82,.06,0,.12,0,.18-.02,.54-.1,.9-.62,.81-1.16-.01-.07-1.2-6.85,1.48-11.01,.3-.46,.16-1.08-.3-1.38Z"/></svg>