<?xml version="1.0" encoding="UTF-8"?><svg id="Layer_2" xmlns="http://www.w3.org/2000/svg" viewBox="0 0 64 64"><defs><style>.cls-1{fill:#747987;}</style></defs><path class="cls-1" d="M53.76,17.64h-2l-4.27-8.61c-.17-.34-.52-.56-.9-.56H17.41c-.38,0-.73,.22-.9,.56l-4.27,8.61h-2c-.55,0-1,.45-1,1v8.42c0,.55,.45,1,1,1h1.62v20.3h-1.62c-.55,0-1,.45-1,1v5.17c0,.55,.45,1,1,1H53.76c.55,0,1-.45,1-1v-5.17c0-.55-.45-1-1-1h-1.62V28.06h1.62c.55,0,1-.45,1-1v-8.42c0-.55-.45-1-1-1ZM18.03,10.47h27.95l3.55,7.17H14.47l3.55-7.17Zm-4.17,23.39H31v6.18H13.86v-6.18Zm38.9,19.68H11.24v-3.17H52.76v3.17Zm-12.98-5.32v-12.44h5.64v12.44h-5.64Zm10.36,.16h-2.72v-13.6c0-.55-.45-1-1-1h-7.64c-.55,0-1,.45-1,1v13.6H13.86v-6.33h18.14c.55,0,1-.45,1-1v-8.18c0-.55-.45-1-1-1H13.86v-3.79H50.14v20.3Zm2.62-22.3h-2.76v-3.21c0-.55-.45-1-1-1s-1,.45-1,1v3.21h-4.33v-3.21c0-.55-.45-1-1-1s-1,.45-1,1v3.21h-4.33v-3.21c0-.55-.45-1-1-1s-1,.45-1,1v3.21H11.24v-6.42h2.76v3.21c0,.55,.45,1,1,1s1-.45,1-1v-3.21h4.46v3.21c0,.55,.45,1,1,1s1-.45,1-1v-3.21h4.46v3.21c0,.55,.45,1,1,1s1-.45,1-1v-3.21h23.83v6.42Z"/></svg>