<?xml version="1.0" encoding="UTF-8"?><svg id="Layer_2" xmlns="http://www.w3.org/2000/svg" viewBox="0 0 64 64"><defs><style>.cls-1{fill:#747987;}</style></defs><path class="cls-1" d="M48.06,8.4H15.94c-2.06,0-3.74,1.68-3.74,3.74V54.6c0,.55,.45,1,1,1h3.26c.55,0,1-.45,1-1v-13.16h29.08v13.16c0,.55,.45,1,1,1h3.26c.55,0,1-.45,1-1V12.14c0-2.06-1.68-3.74-3.74-3.74Zm-31.6,31.03h-2.26v-4.76H49.8v4.76H16.46Zm29.1-6.76H18.44V16.39c0-.96,.78-1.74,1.74-1.74h23.64c.96,0,1.74,.78,1.74,1.74v16.29ZM14.2,12.14c0-.96,.78-1.74,1.74-1.74H48.06c.96,0,1.74,.78,1.74,1.74v20.53h-2.24V16.39c0-2.06-1.68-3.74-3.74-3.74H20.18c-2.06,0-3.74,1.68-3.74,3.74v16.29h-2.24V12.14Zm1.26,41.45h-1.26v-12.16h1.26v12.16Zm34.34,0h-1.26v-12.16h1.26v12.16Z"/><path class="cls-1" d="M34.06,36.05h-4.18c-.55,0-1,.45-1,1s.45,1,1,1h4.18c.55,0,1-.45,1-1s-.45-1-1-1Z"/><path class="cls-1" d="M38.25,43.81h-12.5c-.55,0-1,.45-1,1v9.79c0,.55,.45,1,1,1s1-.45,1-1v-4.83h10.5v4.83c0,.55,.45,1,1,1s1-.45,1-1v-9.79c0-.55-.45-1-1-1Zm-11.5,2h10.5v1.96h-10.5v-1.96Z"/></svg>