<?xml version="1.0" encoding="UTF-8"?><svg id="Layer_2" xmlns="http://www.w3.org/2000/svg" viewBox="0 0 64 64"><defs><style>.cls-1{fill:#747987;}</style></defs><path class="cls-1" d="M20.64,20.5c.55,0,1-.45,1-1,0-.88,.71-1.59,1.59-1.59h17.55c.88,0,1.59,.71,1.59,1.59,0,.55,.45,1,1,1s1-.45,1-1c0-1.87-1.45-3.4-3.28-3.56-.48-4.33-4.16-7.7-8.61-7.7h-.93c-4.45,0-8.13,3.38-8.61,7.7-1.83,.16-3.28,1.68-3.28,3.56,0,.55,.45,1,1,1Zm10.9-10.26h.93c3.34,0,6.11,2.47,6.6,5.67h-14.12c.48-3.21,3.26-5.67,6.6-5.67Z"/><path class="cls-1" d="M22.92,48.06c.48,4.33,4.16,7.7,8.61,7.7h.93c4.45,0,8.13-3.38,8.61-7.7,1.83-.16,3.28-1.68,3.28-3.56,0-.55-.45-1-1-1s-1,.45-1,1c0,.88-.71,1.59-1.59,1.59H23.22c-.88,0-1.59-.71-1.59-1.59,0-.55-.45-1-1-1s-1,.45-1,1c0,1.87,1.45,3.4,3.28,3.56Zm9.54,5.7h-.93c-3.34,0-6.11-2.46-6.6-5.67h14.12c-.48,3.21-3.26,5.67-6.6,5.67Z"/><path class="cls-1" d="M39.8,37.77l-16.27,5.79c-.52,.19-.79,.76-.61,1.28,.15,.41,.53,.67,.94,.67,.11,0,.22-.02,.34-.06l16.27-5.79c.52-.19,.79-.76,.61-1.28-.19-.52-.76-.79-1.28-.61Z"/><path class="cls-1" d="M41.08,33.57c-.19-.52-.76-.79-1.28-.61l-16.27,5.79c-.52,.19-.79,.76-.61,1.28,.15,.41,.53,.67,.94,.67,.11,0,.22-.02,.34-.06l16.27-5.79c.52-.19,.79-.76,.61-1.28Z"/><path class="cls-1" d="M41.08,28.77c-.19-.52-.76-.79-1.28-.61l-16.27,5.79c-.52,.19-.79,.76-.61,1.28,.15,.41,.53,.67,.94,.67,.11,0,.22-.02,.34-.06l16.27-5.79c.52-.19,.79-.76,.61-1.28Z"/><path class="cls-1" d="M41.08,23.96c-.19-.52-.76-.79-1.28-.61l-16.27,5.79c-.52,.19-.79,.76-.61,1.28,.15,.41,.53,.67,.94,.67,.11,0,.22-.02,.34-.06l16.27-5.79c.52-.19,.79-.76,.61-1.28Z"/><path class="cls-1" d="M41.08,19.16c-.19-.52-.76-.79-1.28-.61l-16.27,5.79c-.52,.19-.79,.76-.61,1.28,.15,.41,.53,.67,.94,.67,.11,0,.22-.02,.34-.06l16.27-5.79c.52-.19,.79-.76,.61-1.28Z"/></svg>