<?xml version="1.0" encoding="UTF-8"?><svg id="Layer_2" xmlns="http://www.w3.org/2000/svg" viewBox="0 0 64 64"><defs><style>.cls-1{fill:#747987;}</style></defs><path class="cls-1" d="M18.76,43.93c.11-.16,.18-.34,.28-.51,.08-.06,.15-.13,.21-.22l5.5-8.12,2.46,9.49c.02,.08,.06,.14,.1,.21,.03,.21,.08,.43,.13,.64,.43,1.65,1.48,3.02,2.88,3.76,.75,.39,1.57,.59,2.39,.59,.61,0,1.23-.11,1.83-.33,2.95-1.08,4.67-4.6,3.83-7.83-.43-1.65-1.48-3.02-2.88-3.76-1.31-.69-2.81-.78-4.22-.26-1.32,.49-2.4,1.46-3.1,2.68l-1.92-7.41,9.86-14.56c.31-.46,.19-1.08-.27-1.39-.46-.31-1.08-.19-1.39,.27l-8.87,13.1-3.97-15.31c-.14-.54-.69-.85-1.22-.72-.54,.14-.86,.68-.72,1.22l4.41,17.02-4.3,6.35c-.26-1.39-.92-2.68-2.01-3.59-1.16-.96-2.6-1.38-4.07-1.17-1.57,.22-3.02,1.16-3.98,2.58-1.87,2.76-1.43,6.65,.99,8.66,.96,.8,2.12,1.22,3.33,1.22,.25,0,.49-.02,.74-.05,1.57-.22,3.02-1.16,3.98-2.57Zm13.2-4.46c.38-.14,.76-.21,1.14-.21,.51,0,1.01,.12,1.47,.36,.92,.48,1.59,1.36,1.88,2.49,.59,2.27-.57,4.71-2.59,5.45-.88,.32-1.8,.27-2.6-.16-.92-.48-1.59-1.36-1.88-2.49-.59-2.27,.57-4.71,2.58-5.45Zm-19.96,4.33c-1.65-1.37-1.92-4.07-.61-6,.65-.96,1.58-1.57,2.6-1.72,.9-.13,1.79,.13,2.5,.73,1.65,1.37,1.92,4.07,.61,6-.65,.96-1.57,1.57-2.6,1.71-.9,.13-1.79-.13-2.5-.72Z"/><path class="cls-1" d="M54.2,44.15l-8.5,2.14-.64-2.55,8.5-2.14c.54-.13,.86-.68,.73-1.21-.13-.54-.68-.86-1.21-.73l-8.5,2.14-.64-2.55,8.5-2.14c.54-.13,.86-.68,.73-1.21-.13-.54-.68-.86-1.21-.73l-8.5,2.14-.64-2.55,8.5-2.14c.54-.13,.86-.68,.73-1.21-.13-.54-.68-.86-1.21-.73l-8.5,2.14-.64-2.55,8.5-2.14c.54-.13,.86-.68,.73-1.21-.13-.54-.68-.86-1.21-.73l-8.5,2.14-.64-2.55,8.5-2.14c.54-.13,.86-.68,.73-1.21-.13-.54-.68-.86-1.21-.73l-9.47,2.39c-.26,.06-.48,.23-.61,.46-.14,.23-.18,.5-.11,.76l2.26,8.97s0,0,0,0,0,0,0,0l3.39,13.46c.11,.45,.52,.76,.97,.76,.08,0,.16,0,.25-.03l9.47-2.39c.54-.13,.86-.68,.73-1.21-.13-.54-.68-.86-1.21-.73Z"/></svg>