<?xml version="1.0" encoding="UTF-8"?><svg id="Layer_2" xmlns="http://www.w3.org/2000/svg" viewBox="0 0 64 64"><defs><style>.cls-1{fill:#747987;}</style></defs><path class="cls-1" d="M35.03,49.93c.62,1.03,1.44,1.87,2.36,2.48,.01,0,.02,.02,.03,.02,.02,.01,.06,.04,.11,.07,.13,.08,.27,.16,.4,.23,.09,.05,.19,.1,.3,.16,.02,0,.03,.02,.04,.02,1.23,.64,3.61,1.68,6.12,1.68,1.59,0,3.23-.42,4.65-1.63,.42-.36,.47-.99,.11-1.41-.36-.42-.99-.47-1.41-.11-1.15,.98-2.58,1.22-3.96,1.11,2.6-1.85,3.13-5.91,1.15-9.15-1.32-2.18-3.48-3.53-5.64-3.58l-2.84-4.7c1.18-.63,1.95-.83,1.97-.83,.33-.07,.6-.3,.72-.62,.04-.12,4.56-11.87,5.83-14.91,0,0,0,0,0,0,1.32-3.21-.31-8.45-.38-8.67-.12-.37-.45-.64-.83-.69-.4-.04-.77,.14-.97,.48l-10.79,17.87L21.21,9.89c-.2-.34-.58-.52-.97-.48-.39,.05-.72,.32-.83,.69-.07,.22-1.7,5.46-.38,8.68,1.27,3.04,5.78,14.79,5.83,14.91,.12,.31,.39,.54,.71,.62,0,0,.79,.19,1.98,.83l-2.84,4.7c-2.17,.06-4.32,1.4-5.64,3.57-1.98,3.24-1.44,7.31,1.16,9.15-1.38,.11-2.8-.13-3.96-1.12-.42-.36-1.05-.31-1.41,.11-.36,.42-.31,1.05,.11,1.41,1.42,1.21,3.06,1.63,4.65,1.63,2.51,0,4.89-1.04,6.12-1.68,.01,0,.03-.02,.04-.02,.11-.06,.21-.11,.3-.16,.13-.07,.26-.14,.39-.23,.05-.03,.1-.06,.11-.07,.01,0,.02-.02,.03-.03,.93-.61,1.74-1.46,2.36-2.48,0,0,0,0,0,0,1.51-2.51,1.56-5.54,.22-7.65,.93-1.45,1.88-2.66,2.81-3.64,1.01,1.07,1.95,2.29,2.81,3.64-1.34,2.12-1.28,5.15,.23,7.65Zm8.2-5.48c1.45,2.39,1.15,5.32-.68,6.54,0,0,0,0,0,0-.72,.48-1.59,.63-2.52,.43-.29-.06-.57-.16-.85-.29-.36-.19-.59-.32-.66-.36-.69-.45-1.31-1.09-1.78-1.87-1.21-2-1.2-4.51,.03-5.96,.19-.22,.41-.42,.67-.59,.42-.28,.88-.45,1.39-.5,.11-.01,.22-.02,.33-.02,1.51,0,3.08,1,4.07,2.63Zm-6.05-4.24s-.06,.04-.09,.05c-.27,.12-.53,.25-.77,.42-.04,.02-.07,.05-.11,.07-.85-1.29-1.78-2.46-2.77-3.51,.46-.4,.9-.75,1.32-1.05l2.42,4.01Zm-5.19-7.2c.44,0,.81,.36,.81,.81s-.36,.81-.81,.81-.81-.36-.81-.81,.36-.81,.81-.81Zm11.24-19.99c.29,1.65,.44,3.67-.11,5-1.15,2.76-4.81,12.26-5.67,14.5-.56,.18-1.5,.56-2.66,1.26-.02-1.41-1.09-2.55-2.45-2.73l10.89-18.03Zm-16.71,19.5c-.86-2.24-4.52-11.75-5.67-14.5-.55-1.32-.4-3.35-.11-5l10.07,16.68-2.25,3.73c-.88-.47-1.59-.75-2.04-.9Zm.72,16.38c-.47,.78-1.09,1.42-1.78,1.87-.05,.03-.28,.17-.65,.36-.28,.13-.57,.23-.87,.3-.92,.2-1.8,.06-2.52-.43-1.83-1.22-2.13-4.15-.68-6.54,.99-1.63,2.55-2.63,4.07-2.63,.11,0,.22,0,.33,.02,.5,.05,.98,.22,1.4,.51,.25,.17,.47,.36,.66,.59,1.22,1.45,1.23,3.95,.03,5.96Zm.53-8.14s-.06-.04-.1-.07c-.25-.17-.51-.3-.78-.43-.03-.01-.06-.04-.09-.05l2.9-4.79c.37,.53,.93,.92,1.57,1.09-1.14,1.11-2.34,2.49-3.49,4.24Z"/></svg>