<?xml version="1.0" encoding="UTF-8"?><svg id="Layer_2" xmlns="http://www.w3.org/2000/svg" viewBox="0 0 64 64"><defs><style>.cls-1{fill:#747987;}</style></defs><path class="cls-1" d="M11.51,32.39h4.41c2.48,0,4.5,2.02,4.5,4.5v17.94c0,.55,.45,1,1,1s1-.45,1-1v-17.94c0-1.75-.7-3.33-1.82-4.5h.82c2.48,0,4.5,2.02,4.5,4.5v17.94c0,.55,.45,1,1,1s1-.45,1-1v-17.94c0-2.65-1.59-4.92-3.86-5.94,2.14-1.4,3.8-2.84,5.02-4.36l2.63,2.49c.19,.18,.44,.27,.69,.27,.27,0,.53-.11,.73-.31l11.67-12.35c.38-.4,.36-1.03-.04-1.41l-3.45-3.26s0,0,0,0l-1.32-1.25c-1.84-1.74-4.28-2.67-6.79-2.59-2.54,.07-4.89,1.13-6.63,2.97-1.74,1.84-2.66,4.26-2.59,6.79s1.13,4.89,2.97,6.63l.68,.64c-1.39,1.78-3.56,3.52-6.47,5.17H11.51c-.55,0-1,.45-1,1s.45,1,1,1Zm20.85-5.45l-2-1.89,10.29-10.9,2,1.89-10.29,10.9Zm-6.39-9.06c-.06-2,.67-3.91,2.04-5.36,1.37-1.46,3.23-2.29,5.24-2.35,2.01-.06,3.91,.67,5.36,2.04l.59,.56-10.29,10.9-.59-.56c-1.46-1.37-2.29-3.23-2.35-5.24Z"/><path class="cls-1" d="M43.78,34.24c0-2.19-1.79-3.98-3.98-3.98s-3.98,1.79-3.98,3.98v8.27c0,2.55,2.07,4.62,4.62,4.62h3.31v6.64h-2.76c-.55,0-1,.45-1,1s.45,1,1,1h7.83c.55,0,1-.45,1-1s-.45-1-1-1h-3.07v-6.64h3.96c2.08,0,3.78-1.69,3.78-3.78s-1.69-3.78-3.78-3.78h-5.93v-5.34Zm5.93,7.34c.98,0,1.78,.8,1.78,1.78s-.8,1.78-1.78,1.78h-9.27c-1.44,0-2.62-1.17-2.62-2.62v-8.27c0-1.09,.89-1.98,1.98-1.98s1.98,.89,1.98,1.98v6.34c0,.55,.45,1,1,1h6.93Z"/></svg>