<?xml version="1.0" encoding="UTF-8"?><svg id="Layer_2" xmlns="http://www.w3.org/2000/svg" viewBox="0 0 64 64"><defs><style>.cls-1{fill:#747987;}</style></defs><path class="cls-1" d="M17.65,44.57c.44,1.73,2.87,6.39,3.56,7.69-.09,1.08,.54,2.11,1.6,2.5,1.14,.42,3,.96,5.1,.96,1.1,0,2.26-.15,3.41-.54,2.39-.81,4.84-.99,6.57-.99,.09,0,.18,0,.28,0,.07,0,.14-.02,.22-.02,.05,.02,.09,.04,.15,.05,.95,.14,1.8,.22,2.58,.22,2.06,0,3.53-.52,4.44-1.56,1.06-1.21,1.24-3.02,.55-5.38l-.05-.17c-1.47-5.01-4.54-15.45-6.36-18.84-.91-1.7-1.81-2.83-2.64-3.58,1.78-1.68,2.76-3.95,2.76-6.39,0-4.44-3.28-5.69-6.03-6.05,.15-.36,.23-.75,.23-1.16,0-1.66-1.35-3.01-3.01-3.01s-3.01,1.35-3.01,3.01c0,.41,.08,.8,.23,1.16-2.75,.36-6.03,1.61-6.03,6.05,0,2.12,.77,4.14,2.11,5.71-4.6,9.94-7.47,17.21-6.65,20.35Zm20.26-15.15c1.72,3.21,4.86,13.9,6.2,18.46l.05,.17c.49,1.66,.44,2.84-.13,3.5-.57,.66-1.79,.94-3.54,.85,.12-.41,.14-.84,.03-1.25l-5.38-25.22c.73,.5,1.71,1.49,2.77,3.48Zm-6.92-19.14c.56,0,1.01,.45,1.01,1.01s-.45,1.01-1.01,1.01-1.01-.45-1.01-1.01,.45-1.01,1.01-1.01Zm0,4.03c4.9,0,6.8,1.18,6.8,4.19,0,1.9-.76,3.66-2.11,4.92l-.39,.32c-.39-.17-.73-.25-1.01-.29-.74-1.05-1.95-1.72-3.3-1.72-1.18,0-2.27,.52-3.02,1.38,0,0-.02,.01-.03,.02-.05,.05-.08,.11-.12,.17-.21,.27-.4,.57-.54,.9-.05-.03-.1-.06-.15-.09-1.85-1.26-2.95-3.36-2.95-5.61,0-3.02,1.91-4.19,6.8-4.19Zm-5.14,11.33c.06,.04,.1,.09,.16,.12,.25,.18,.51,.33,.77,.47l-1.19,5.56c-.12,.54,.23,1.07,.77,1.19,.54,.12,1.07-.23,1.19-.77l1.49-6.96c.23-.89,1.04-1.52,1.96-1.52,.76,0,1.43,.42,1.77,1.04,.03,.09,.06,.18,.12,.25,.02,.06,.05,.12,.06,.18l5.64,26.41c.05,.2-.04,.35-.08,.4-.05,.06-.16,.17-.34,.17h0c-1.89-.02-4.71,.15-7.48,1.09-2.77,.94-5.68,.15-7.17-.4-.22-.08-.35-.32-.28-.59l3.68-17.15c.12-.54-.23-1.07-.77-1.19-.55-.12-1.07,.23-1.19,.77l-3.1,14.43c-.96-1.9-2.03-4.15-2.27-5.08-.77-2.95,3.78-13.06,6.26-18.44Z"/><path class="cls-1" d="M27.26,48.39c.06,.01,.12,.02,.18,.02,.47,0,.9-.34,.98-.82l1.21-6.65c.1-.54-.26-1.06-.8-1.16-.54-.09-1.06,.26-1.16,.81l-1.21,6.65c-.1,.54,.26,1.06,.8,1.16Z"/><path class="cls-1" d="M29.17,37.86c.06,.01,.12,.02,.18,.02,.47,0,.9-.34,.98-.82l.48-2.66c.1-.54-.26-1.06-.81-1.16-.54-.1-1.06,.26-1.16,.81l-.48,2.66c-.1,.54,.26,1.06,.81,1.16Z"/></svg>