<?xml version="1.0" encoding="UTF-8"?><svg id="Layer_2" xmlns="http://www.w3.org/2000/svg" viewBox="0 0 64 64"><defs><style>.cls-1{fill:#747987;}</style></defs><path class="cls-1" d="M20.99,40.09v9.54c0,3.17,2.57,5.74,5.74,5.74h10.55c3.17,0,5.74-2.57,5.74-5.74v-9.54c0-1.68,.5-3.3,1.45-4.68,1.18-1.72,1.81-3.73,1.81-5.82v-6.74c0-1.7-.67-3.24-1.75-4.38h.75c.55,0,1-.45,1-1v-7.83c0-.55-.45-1-1-1s-1,.45-1,1v6.83h-2.8v-6.83c0-.55-.45-1-1-1s-1,.45-1,1v6.83h-2.24v-6.83c0-.55-.45-1-1-1s-1,.45-1,1v6.83h-2.24v-6.83c0-.55-.45-1-1-1s-1,.45-1,1v6.83h-2.24v-6.83c0-.55-.45-1-1-1s-1,.45-1,1v6.83h-2.24v-6.83c0-.55-.45-1-1-1s-1,.45-1,1v6.83h-2.8v-6.83c0-.55-.45-1-1-1s-1,.45-1,1v7.83c0,.55,.45,1,1,1h.75c-1.08,1.14-1.75,2.69-1.75,4.38v6.74c0,2.09,.62,4.1,1.81,5.82,.95,1.38,1.46,3,1.46,4.68Zm23.29-10.5c0,1.68-.5,3.3-1.46,4.68-1.18,1.72-1.81,3.73-1.81,5.82v9.54c0,2.06-1.68,3.74-3.74,3.74h-10.55c-2.06,0-3.74-1.68-3.74-3.74v-9.54c0-2.09-.62-4.1-1.81-5.82-.95-1.38-1.45-3-1.45-4.68v-6.74c0-2.42,1.97-4.38,4.38-4.38h15.78c2.42,0,4.38,1.97,4.38,4.38v6.74Z"/><path class="cls-1" d="M37.51,21.28h-11.02c-1.62,0-2.94,1.32-2.94,2.94v4.03c0,1.62,1.32,2.94,2.94,2.94h11.02c1.62,0,2.94-1.32,2.94-2.94v-4.03c0-1.62-1.32-2.94-2.94-2.94Zm.94,6.97c0,.52-.42,.94-.94,.94h-11.02c-.52,0-.94-.42-.94-.94v-4.03c0-.52,.42-.94,.94-.94h11.02c.52,0,.94,.42,.94,.94v4.03Z"/><path class="cls-1" d="M32,34.49c-.55,0-1,.45-1,1v9.86c0,.55,.45,1,1,1s1-.45,1-1v-9.86c0-.55-.45-1-1-1Z"/><path class="cls-1" d="M36.24,37.79c-.55,0-1,.45-1,1v9.86c0,.55,.45,1,1,1s1-.45,1-1v-9.86c0-.55-.45-1-1-1Z"/><path class="cls-1" d="M27.76,37.79c-.55,0-1,.45-1,1v9.86c0,.55,.45,1,1,1s1-.45,1-1v-9.86c0-.55-.45-1-1-1Z"/><path class="cls-1" d="M34.35,25.24h-4.7c-.55,0-1,.45-1,1s.45,1,1,1h4.7c.55,0,1-.45,1-1s-.45-1-1-1Z"/></svg>