<?xml version="1.0" encoding="UTF-8"?><svg id="Layer_2" xmlns="http://www.w3.org/2000/svg" viewBox="0 0 64 64"><defs><style>.cls-1{fill:#747987;}</style></defs><path class="cls-1" d="M44.29,11.5H19.71c-1.75,0-3.17,1.42-3.17,3.17v30.96c0,1.52,1.07,2.79,2.5,3.1v.92c0,1.57,1.27,2.84,2.84,2.84s2.84-1.27,2.84-2.84v-.84h14.56v.84c0,1.57,1.27,2.84,2.84,2.84s2.84-1.27,2.84-2.84v-.92c1.43-.31,2.5-1.58,2.5-3.1V14.68c0-1.75-1.42-3.17-3.17-3.17Zm-24.58,2h24.58c.65,0,1.17,.53,1.17,1.17v8.74c-.36-.15-.76-.23-1.17-.23H19.71c-.42,0-.81,.09-1.17,.23V14.68c0-.65,.53-1.17,1.17-1.17Zm25.76,20.45c0,.65-.53,1.17-1.17,1.17H19.71c-.65,0-1.17-.53-1.17-1.17v-7.59c0-.65,.53-1.17,1.17-1.17h24.58c.65,0,1.17,.53,1.17,1.17v7.59Zm-22.74,15.7c0,.46-.38,.84-.84,.84s-.84-.38-.84-.84v-.84h1.68v.84Zm20.24,0c0,.46-.38,.84-.84,.84s-.84-.38-.84-.84v-.84h1.68v.84Zm1.33-2.84H19.71c-.65,0-1.17-.53-1.17-1.17v-8.74c.36,.15,.76,.23,1.17,.23h24.58c.42,0,.81-.09,1.17-.23v8.74c0,.65-.53,1.17-1.17,1.17Z"/><path class="cls-1" d="M30.62,19.23h2.75c.55,0,1-.45,1-1s-.45-1-1-1h-2.75c-.55,0-1,.45-1,1s.45,1,1,1Z"/><path class="cls-1" d="M33.38,29.16h-2.75c-.55,0-1,.45-1,1s.45,1,1,1h2.75c.55,0,1-.45,1-1s-.45-1-1-1Z"/><path class="cls-1" d="M33.38,40.94h-2.75c-.55,0-1,.45-1,1s.45,1,1,1h2.75c.55,0,1-.45,1-1s-.45-1-1-1Z"/></svg>