<?xml version="1.0" encoding="UTF-8"?><svg id="Layer_2" xmlns="http://www.w3.org/2000/svg" viewBox="0 0 64 64"><defs><style>.cls-1{fill:#747987;}</style></defs><path class="cls-1" d="M35.92,21.66c-.31-.52-7.55-12.62-15.62-12.74-.41-.02-.79,.24-.94,.62-.16,.38-.06,.82,.24,1.1,4.49,4.26,7.49,8.8,8.51,12.78-2.71-2.98-9.75-9.86-16.19-9-.41,.05-.74,.35-.84,.75-.1,.4,.06,.82,.4,1.06,5.99,4.19,9.99,9.09,10.98,13.43,.04,.17,.12,.33,.24,.46l22.94,24.61s.01,0,.02,.01c.09,.09,.19,.16,.29,.21,.02,.01,.05,.02,.07,.03,.11,.04,.23,.07,.35,.07,0,0,0,0,0,0,0,0,0,0,0,0s0,0,0,0c.1,0,.19-.02,.29-.05,.03,0,.06-.02,.09-.04,.05-.02,.09-.03,.14-.06l5.59-3.3c.23-.14,.39-.36,.46-.61,.07-.26,.03-.53-.11-.76l-16.9-28.6Zm-20.51-4.95c6.08,1.72,12.22,9.21,12.29,9.29l3.42,4.22,9.71,16.43L24.34,28.97c-1.01-4.08-4.14-8.35-8.94-12.26Zm31.32,35.99l-13.79-23.33-.13-.22h0l-2.36-3.99c-.39-4.18-2.86-8.88-7.04-13.48,5.75,2.58,10.72,10.89,10.79,11l16.39,27.74-3.87,2.28Z"/></svg>