<?xml version="1.0" encoding="UTF-8"?><svg id="Layer_2" xmlns="http://www.w3.org/2000/svg" viewBox="0 0 64 64"><defs><style>.cls-1{fill:#747987;}</style></defs><path class="cls-1" d="M47.37,15.31c-1.23-1.12-3.3-2.37-6.15-3.72-6.72-3.18-14.42-2.95-20.59,.62-.98,.57-1.79,1.14-2.43,1.72-3.86,3.52-7.7,17.61-7.86,18.21-.06,.23-.04,.48,.06,.69,.09,.18,2.14,4.41,5.68,5.31,.69,.18,1.38,.21,2.06,.12h7.46c.22,.19,.44,.38,.68,.55,.9,.65,1.94,1.12,3.02,1.41v8.3h-.43c-2.38,0-4.32,1.94-4.32,4.32v.8c0,.55,.45,1,1,1h12.88c.55,0,1-.45,1-1v-.8c0-2.38-1.94-4.32-4.32-4.32h-.43v-8.32c1.42-.38,2.69-1.05,3.69-1.94h7.55s0,0,.02,0c.21,.03,.42,.06,.63,.06,.45,0,.9-.06,1.34-.17,3.54-.9,5.6-5.13,5.68-5.31,.09-.19,.12-.4,.08-.61-.1-.54-2.41-13.36-6.31-16.92Zm-9.94,37.34h-10.86c.1-1.19,1.1-2.13,2.32-2.13h6.23c1.22,0,2.22,.94,2.32,2.13Zm-14.31-19.44l.16,.99c.12,.72,.37,1.41,.73,2.06h-2.13c.56-.76,.95-1.84,1.24-3.05Zm2.14,.66l-1.28-7.69c2.84-.28,4.79-1.24,6.13-2.42h3.62c1.54,1.3,3.65,2.11,6.3,2.41l-1.28,7.71c-.38,2.24-2.49,4.08-5.26,4.58-.68,.14-1.5,.17-2.24,.1-.26-.02-.51-.06-.75-.11-1.11-.19-2.15-.62-3.02-1.25-1.21-.87-1.99-2.05-2.21-3.32Zm6.48-12.12c.05-.08,.1-.16,.15-.24,.04,.08,.1,.16,.14,.24h-.29Zm10.38,14.51h-2.14c.36-.65,.61-1.34,.74-2.07l.16-.98c.28,1.21,.68,2.29,1.24,3.05Zm-9.44,4.3v7.96h-1.36v-7.96c.07,0,.15,0,.22,0,.15,0,.3,.02,.46,.02s.31-.01,.46-.02c.07,0,.14,0,.22,0Zm14.74-4.35c-1.12,.29-2.26,0-3.47-.87-1.32-.95-1.83-6.57-1.76-10.06,0,0,0-.01,0-.02,0,0,0,0,0,0,0-.02-.01-.04-.01-.07,0-.11-.02-.21-.06-.31-.02-.04-.05-.07-.07-.11-.04-.07-.08-.15-.14-.21-.02-.02-.06-.04-.08-.06-.07-.06-.15-.12-.23-.16-.02,0-.05-.01-.07-.02-.09-.03-.17-.06-.27-.07-2.79-.16-4.91-.86-6.32-2.09-.06-.08-.13-.15-.21-.21-.12-.12-.25-.23-.36-.36-1.37-1.57-1.38-3.34-1.37-3.72,0-.09,0-.14,0-.15,0-.54-.41-.98-.95-1.01-.55-.03-1,.37-1.05,.91,0,.02,0,.09-.01,.21-.07,.94-.77,6.19-8.22,6.41-.55,.02-.98,.47-.97,1.02,.07,3.49-.44,9.11-1.76,10.06-.76,.55-1.49,.84-2.21,.93h-.81c-.14-.02-.29-.02-.43-.05-2.16-.55-3.72-3.04-4.21-3.92,1.16-4.19,4.41-14.36,7.17-16.88,.53-.48,1.23-.97,2.08-1.47,5.61-3.24,12.61-3.44,18.74-.54,2.68,1.27,4.58,2.41,5.66,3.39,2.74,2.49,4.92,11.7,5.62,15.46-.62,1.14-2.22,3.45-4.23,3.96Z"/></svg>