<?xml version="1.0" encoding="UTF-8"?><svg id="Layer_2" xmlns="http://www.w3.org/2000/svg" viewBox="0 0 64 64"><defs><style>.cls-1{fill:#747987;}</style></defs><path class="cls-1" d="M35.5,43.42c-1.91-.95-4.23-.17-5.18,1.74-.46,.92-.53,1.97-.2,2.95,.33,.98,1.02,1.77,1.95,2.23,.55,.27,1.14,.4,1.71,.4,1.42,0,2.79-.79,3.47-2.15,.95-1.91,.17-4.23-1.74-5.18Zm-.05,4.29c-.46,.92-1.58,1.3-2.5,.84-.45-.22-.78-.6-.94-1.08-.16-.47-.12-.98,.1-1.42,.33-.66,.99-1.04,1.68-1.04,.28,0,.56,.06,.83,.19,.45,.22,.78,.6,.94,1.08,.16,.47,.12,.98-.1,1.42Z"/><path class="cls-1" d="M54.78,10.16s-.02,0-.03,0c-.11,0-.21,.03-.31,.07-.02,0-.04,.01-.06,.02,0,0-.01,0-.01,0l-.14,.07c-.24,.12-.76,.36-1.48,.69-.26-.23-.54-.44-.86-.6-1.87-.93-4.15-.23-5.18,1.59l-.98,1.73c-2.82,.93-5.54,1.64-8.07,2.11-1.57,.29-3.28,.55-5.09,.83-8.04,1.24-18.05,2.78-23.46,8.24-.91,.93-1.17,2.36-.63,3.57l.54,1.21c.12,.26,.34,.46,.61,.55,.1,.03,.2,.05,.3,.05,.14,0,.27-.04,.39-.09l.88,1.87c.47,1.01,1.46,1.6,2.51,1.6,.37,0,.74-.07,1.1-.23l14.52-6.23c.13,.23,.34,.42,.6,.49,.29,.08,.61,.02,.85-.16l2.27-1.68c.35-.26,.49-.72,.35-1.13l-.7-2.01c1.79-.48,5.59-1.57,9.74-3.19l-3.56,6.31-11.35,18.34c-.81,1.62-.93,3.47-.35,5.19,.58,1.72,1.79,3.11,3.41,3.91,.95,.47,1.98,.71,3.01,.71,.73,0,1.46-.12,2.17-.36,1.72-.58,3.11-1.79,3.92-3.42,.01-.03,.03-.06,.04-.08l7.7-20,6.31-14.63c.32-.74,.39-1.52,.26-2.25,.56-.47,1.07-.92,1.48-1.37,.01-.01,.03-.02,.04-.03,.39-.39,.39-1.02,0-1.41-.2-.2-.47-.29-.74-.28ZM14.02,31.61c-.39,.17-.83,0-1.01-.38l-.95-2.02c3.88-2.2,10.61-5.59,15.53-5.84l.9,2.04-14.48,6.21Zm17.15-10.55c-.27,.07-.51,.25-.64,.49-.13,.25-.16,.54-.07,.81l.81,2.34-.68,.5-1.44-3.25c-.16-.36-.51-.59-.91-.59h-.07c-5.58,0-13.18,3.84-17.79,6.51l-.08-.19c-.21-.46-.11-1,.23-1.35,4.95-4.99,14.59-6.48,22.34-7.67,1.83-.28,3.56-.55,5.15-.84,1.99-.37,4.09-.88,6.27-1.53l-.24,.43c-6.33,2.74-12.8,4.33-12.87,4.34Zm20.74-6.35l-6.33,14.67-7.7,19.99c-.57,1.13-1.54,1.97-2.74,2.37-1.21,.41-2.51,.32-3.66-.25-1.14-.57-2-1.55-2.41-2.76-.41-1.21-.32-2.51,.2-3.58l11.33-18.29,7.84-13.87c.35-.63,1.01-.98,1.69-.98,.29,0,.58,.07,.86,.2,.92,.46,1.33,1.56,.92,2.5Z"/><path class="cls-1" d="M48.75,13.66c-.55,.55-.55,1.44,0,1.99,.27,.27,.62,.41,1,.41s.73-.15,1-.41c.55-.55,.55-1.44,0-1.99-.53-.53-1.46-.53-1.99,0Zm1.42,1.41c-.23,.23-.6,.23-.84,0t0,0c-.23-.23-.23-.61,0-.83,.22-.22,.62-.22,.84,0,.23,.23,.23,.61,0,.84Z"/></svg>