<?xml version="1.0" encoding="UTF-8"?><svg id="Layer_2" xmlns="http://www.w3.org/2000/svg" viewBox="0 0 64 64"><defs><style>.cls-1{fill:#747987;}</style></defs><path class="cls-1" d="M31.68,18.29L13,48.94c-.14,.23-.18,.5-.12,.76s.22,.48,.45,.62l6.34,3.86s.09,.04,.14,.06c.03,.01,.06,.03,.09,.04,.1,.03,.19,.05,.29,.05,0,0,0,0,0,0,0,0,0,0,0,0,0,0,0,0,0,0,.12,0,.23-.03,.34-.07,.03,0,.05-.02,.08-.03,.11-.05,.2-.11,.29-.2,0,0,.01,0,.02-.01l25.21-26.17c.09-.09,.15-.19,.2-.31l4.76-11.41c.17-.4,.05-.87-.28-1.15-.33-.28-.81-.31-1.18-.08l-9.24,5.88,2.44-9.85c.1-.42-.08-.87-.45-1.09-.37-.23-.85-.19-1.18,.1l-9.3,8.14c-.08,.07-.14,.15-.2,.23Zm16.33,0l-3.46,8.3-18.77,19.49,12.34-20.25,2.27-2.7,7.61-4.84Zm-7.9-4.76l-2.17,8.76-13.95,22.88-4.14,6.78-4.63-2.82,18.08-29.66,6.8-5.94Z"/></svg>