<?xml version="1.0" encoding="UTF-8"?><svg id="Layer_2" xmlns="http://www.w3.org/2000/svg" viewBox="0 0 64 64"><defs><style>.cls-1{fill:#747987;}</style></defs><path class="cls-1" d="M43.07,43.54c.55,0,1-.45,1-1v-5.08c0-.55-.45-1-1-1s-1,.45-1,1v5.08c0,.55,.45,1,1,1Z"/><path class="cls-1" d="M39.32,49c0,.55,.45,1,1,1s1-.45,1-1v-5.08c0-.55-.45-1-1-1s-1,.45-1,1v5.08Z"/><path class="cls-1" d="M40.32,37.71c.55,0,1-.45,1-1v-5.08c0-.55-.45-1-1-1s-1,.45-1,1v5.08c0,.55,.45,1,1,1Z"/><path class="cls-1" d="M47.35,43.95V23.74c0-4.09-1.59-7.95-4.49-10.86-2.9-2.9-6.76-4.5-10.86-4.5-8.46,0-15.35,6.89-15.35,15.36v4.24c0,6.08,4.33,11.35,10.19,12.6v1.28l-7.91,1.43c-5.49,.99-9.47,5.76-9.47,11.33,0,.55,.45,1,1,1s1-.45,1-1c0-4.61,3.29-8.55,7.83-9.37l8.73-1.57c.48-.09,.82-.5,.82-.98v-5.33c1,.36,2.06,.56,3.16,.56,1.42,0,2.83-.33,4.1-.95v13.23c0,.55,.45,1,1,1s1-.45,1-1V28.44c0-4.47-3.64-8.11-8.11-8.11h-6.36c-.55,0-1,.45-1,1v7.22c0,2.49,.97,4.85,2.74,6.63,.45,.45,.95,.85,1.47,1.19v2.16c-4.74-1.21-8.19-5.55-8.19-10.55v-4.24c0-7.37,5.99-13.36,13.35-13.36,3.56,0,6.92,1.39,9.44,3.92,2.52,2.53,3.91,5.88,3.91,9.44v24.72c0,.55,.45,1,1,1s1-.45,1-1v-2.32c3.15,1.6,5.19,4.85,5.19,8.48,0,.55,.45,1,1,1s1-.45,1-1c0-4.73-2.86-8.92-7.19-10.67Zm-22.72-15.4v-6.22h5.36c3.37,0,6.11,2.74,6.11,6.11v6.24c-.14,.1-.29,.18-.44,.27-1.11,.64-2.38,.98-3.66,.98-1.96,0-3.81-.77-5.21-2.15-1.39-1.4-2.16-3.25-2.16-5.22Z"/><path class="cls-1" d="M30.58,26.92c.33-.45,.24-1.09-.2-1.41-.45-.33-1.06-.24-1.38,.2-.07,.05-.29,.05-.37,0-.34-.43-.96-.51-1.4-.17-.44,.34-.52,.96-.18,1.4,.39,.51,1.05,.81,1.76,.81,.01,0,.02,0,.03,0,.72,0,1.37-.32,1.74-.83Z"/><path class="cls-1" d="M34.29,32.63c.38-.4,.36-1.03-.04-1.41-.4-.38-1.03-.36-1.41,.04-.06,.06-.34,.2-.8,.21-.52,0-.78-.13-.88-.23-.39-.39-1.02-.4-1.42,0-.39,.39-.39,1.02,0,1.41,.52,.52,1.34,.82,2.27,.82h.05c.93-.01,1.74-.32,2.23-.84Z"/></svg>