<?xml version="1.0" encoding="UTF-8"?><svg id="Layer_2" xmlns="http://www.w3.org/2000/svg" viewBox="0 0 64 64"><defs><style>.cls-1{fill:#747987;}</style></defs><path class="cls-1" d="M16.62,54.85c.06,0,.11,0,.17,0,2.06-.04,3.96-.91,5.35-2.43l8.42-9.2s0,0,.01,0c0,0,0-.01,.01-.02l22.24-24.3c1.98-2.16,1.9-5.48-.17-7.55-2.07-2.07-5.39-2.15-7.55-.17l-24.3,22.24s-.01,0-.01,0c0,0,0,0,0,0l-9.2,8.42c-1.52,1.39-2.38,3.29-2.43,5.35-.05,2.06,.73,4,2.19,5.45,1.42,1.42,3.28,2.19,5.28,2.19Zm.72-15.55l7.36,7.36-2.42,2.64-7.59-7.59,2.65-2.42Zm4.12-3.77l7.01,7.01-2.42,2.64-7.24-7.24,2.64-2.42Zm6.37-5.83c2.93,1.77,6.04,2.91,9.28,3.4l-7.29,7.96-6.89-6.89,4.89-4.48Zm4.66-4.27c2.77,1.63,5.69,2.7,8.71,3.2l-2.43,2.66c-3.28-.29-6.44-1.29-9.4-2.99l3.12-2.86Zm4.69-4.29c2.59,1.49,5.31,2.5,8.13,3l-2.46,2.69c-3.09-.32-5.99-1.24-8.81-2.81l3.15-2.88Zm4.68-4.28c2.4,1.36,4.93,2.3,7.55,2.8l-2.47,2.7c-2.84-.34-5.59-1.22-8.21-2.64l3.13-2.86Zm4.59-4.2c1.37-1.25,3.47-1.21,4.79,.11,1.31,1.31,1.36,3.42,.11,4.79l-.32,.35c-2.64-.36-5.19-1.18-7.61-2.46l3.04-2.78ZM12.93,43.33l.29-.27,7.71,7.71-.27,.29c-1.02,1.11-2.41,1.74-3.92,1.78-1.51,.04-2.93-.54-3.99-1.6s-1.64-2.49-1.6-3.99c.03-1.51,.66-2.9,1.78-3.92Z"/></svg>