<?xml version="1.0" encoding="UTF-8"?><svg id="Layer_2" xmlns="http://www.w3.org/2000/svg" viewBox="0 0 64 64"><defs><style>.cls-1{fill:#747987;}</style></defs><path class="cls-1" d="M8.88,35.81c.17,.1,.35,.15,.53,.15,.33,0,.66-.17,.85-.47l9.74-15.55c.95-1.52,2.4-2.58,4.06-3.04l-3.63,5.8c-.18,.28-.2,.64-.06,.94,1.52,3.36,4.13,5.07,7.76,5.07,.11,0,.22,0,.33,0,.33,0,.64-.19,.82-.47l3.62-5.78c.31,1.72-.01,3.47-.95,4.97l-9.74,15.55c-.29,.47-.15,1.09,.32,1.38,.17,.1,.35,.15,.53,.15,.33,0,.66-.17,.85-.47l9.74-15.55c1.29-2.05,1.69-4.48,1.14-6.82-.12-.52-.29-1-.48-1.45l.64-1.03c1.53-2.44,.78-5.66-1.65-7.19-2.44-1.53-5.66-.79-7.19,1.65l-.65,1.03c-2.94,.14-5.57,1.68-7.15,4.21l-9.74,15.55c-.29,.47-.15,1.09,.32,1.38ZM32.23,13.68c1.5,.94,1.96,2.93,1.02,4.43l-5.38,8.59c-2.5-.07-4.29-1.19-5.45-3.41l5.38-8.59c.94-1.5,2.93-1.96,4.43-1.02Z"/><path class="cls-1" d="M22.42,38.34c.55-.02,.99-.48,.97-1.03-.02-.54-.46-.97-1-.97,0,0-.02,0-.03,0-2.94,.08-4.99-1.19-6.21-3.89-.23-.5-.82-.73-1.32-.5-.5,.23-.73,.82-.5,1.32,1.52,3.36,4.13,5.07,7.76,5.07,.11,0,.22,0,.33,0Z"/><path class="cls-1" d="M14.15,35.65c-.23-.5-.82-.73-1.32-.5-.5,.23-.73,.82-.5,1.32,1.52,3.36,4.13,5.07,7.76,5.07,.11,0,.22,0,.33,0,.55-.02,.99-.47,.97-1.03-.02-.55-.5-1-1.03-.97-2.97,.08-4.99-1.19-6.21-3.89Z"/><path class="cls-1" d="M46.02,18.73c-3.04-.92-5.75-.27-8.05,1.93-.33,.31-.4,.8-.19,1.2l3.43,6.34,2.96,12.39-1.61,.39c-.67,.16-1.23,.61-1.53,1.23-.3,.62-.32,1.33-.03,1.96l4.8,10.65c.17,.36,.53,.59,.91,.59,.08,0,.16,0,.23-.03l6.79-1.62c.47-.11,.79-.54,.77-1.02l-.54-11.67c-.03-.69-.37-1.32-.92-1.74-.55-.41-1.25-.56-1.92-.4l-1.61,.39-2.96-12.39,.19-7.21c.01-.45-.28-.85-.71-.98Zm-1.31,1.73l-.15,5.77-1.89,.45-2.75-5.07c1.43-1.13,3.01-1.5,4.79-1.15Zm6.87,20.41s.05,0,.07,0c.08,0,.15,.04,.18,.06,.04,.03,.12,.11,.12,.23l.5,10.84-5.18,1.24-4.46-9.9c-.05-.11-.02-.21,0-.26,.02-.05,.08-.13,.2-.16l2.58-.62s0,0,0,0l2.67-.64,3.3-.79Zm-5.46-.75l-2.76-11.54,1.44-.34,2.76,11.54-1.44,.34Z"/></svg>