<?xml version="1.0" encoding="UTF-8"?>
<svg id="Camada_1" xmlns="http://www.w3.org/2000/svg" version="1.1" viewBox="0 0 300 300">
  <!-- Generator: Adobe Illustrator 30.1.0, SVG Export Plug-In . SVG Version: 2.1.1 Build 136)  -->
  <defs>
    <style>
      .st0 {
        fill-rule: evenodd;
      }
    </style>
  </defs>
  <path class="st0" d="M255.5,77.88h0c-3.15-2.25-7.69-1.42-10.15,1.85l-24.24,32.16-11.36-32.04c-1.17-3.3-4.68-4.99-7.85-3.76l-1.15.44c-1.77.68-3.05,2.13-3.63,3.85-.28.24-.55.51-.79.8l-45.9,56.6-46.15-56.96c-.34-.42-.73-.78-1.16-1.09-.63-1.55-1.85-2.83-3.48-3.46l-1.14-.44c-3.15-1.22-6.66.46-7.82,3.76l-11.25,31.77-24.13-32.74c-2.45-3.32-7-4.2-10.15-1.94l-.03.02c-2.14,1.53-3.08,4.1-2.7,6.63-.43.88-.69,1.87-.69,2.92v131.14c0,3.65,2.96,6.61,6.61,6.61.1,0,.19-.01.28-.01,2.8.46,5.62-1.19,6.64-4.08l28.27-79.8,59.97,80.59c.44.98,1.12,1.86,2.03,2.55h0c2.93,2.24,7.15,1.64,9.41-1.34l61.94-81.56,28.41,80.09c1.17,3.3,4.68,4.99,7.85,3.76l1.15-.44c1.01-.39,1.86-1.03,2.51-1.82.92-1.06,1.48-2.44,1.48-3.95V85.64c0-.37-.04-.73-.1-1.08.44-2.54-.5-5.14-2.66-6.69ZM54.94,180.46v-78.78l18.91,25.41-18.91,53.37ZM149.67,206.66l-60.6-82.22,9.98-28.17,45.83,56.56c.88,1.09,2.09,1.82,3.41,2.16,2.63.96,5.72.23,7.51-1.97l45.62-56.26,9.95,28.05-61.69,81.85ZM245.1,103.16v76.37l-18.46-52.05,18.46-24.31Z"/>
</svg>