<?xml version="1.0" encoding="UTF-8"?>
<svg id="Camada_1" xmlns="http://www.w3.org/2000/svg" version="1.1" viewBox="0 0 300 300">
  <!-- Generator: Adobe Illustrator 30.1.0, SVG Export Plug-In . SVG Version: 2.1.1 Build 136)  -->
  <defs>
    <style>
      .st0 {
        fill: #1d1d1b;
      }

      .st1 {
        fill-rule: evenodd;
      }
    </style>
  </defs>
  <g>
    <path class="st1" d="M184.36,97.88h0c-1.04-.74-2.53-.47-3.35.61l-7.99,10.6-3.74-10.56c-.39-1.09-1.54-1.64-2.59-1.24l-.38.15c-.58.22-1,.7-1.2,1.27-.09.08-.18.17-.26.26l-15.12,18.65-15.21-18.77c-.11-.14-.24-.26-.38-.36-.21-.51-.61-.93-1.15-1.14l-.38-.15c-1.04-.4-2.19.15-2.58,1.24l-3.71,10.47-7.95-10.79c-.81-1.1-2.31-1.38-3.35-.64h-.01c-.7.51-1.01,1.36-.89,2.19-.14.29-.23.62-.23.96v43.21c0,1.2.97,2.18,2.18,2.18.03,0,.06,0,.09,0,.92.15,1.85-.39,2.19-1.34l9.32-26.29,19.76,26.55c.14.32.37.61.67.84h0c.97.74,2.36.54,3.1-.44l20.41-26.87,9.36,26.39c.39,1.09,1.54,1.64,2.59,1.24l.38-.15c.33-.13.61-.34.83-.6.3-.35.49-.8.49-1.3v-43.6c0-.12-.01-.24-.03-.35.14-.84-.16-1.69-.88-2.2ZM118.28,131.68v-25.96l6.23,8.37-6.23,17.59ZM149.49,140.31l-19.97-27.09,3.29-9.28,15.1,18.64c.29.36.69.6,1.12.71.87.32,1.89.08,2.47-.65l15.03-18.54,3.28,9.24-20.33,26.97ZM180.94,106.21v25.16l-6.08-17.15,6.08-8.01Z"/>
    <g>
      <path class="st0" d="M52.6,185.5h-2.21l-1.88-13.38-6.44,13.93-6.43-13.93-1.88,13.38h-2.24l3.15-20.17,7.45,16.05,7.38-16.05,3.1,20.17Z"/>
      <path class="st0" d="M72.38,185.5h-2.41l-2.55-5.94h-8.15l-2.53,5.94h-2.41l9.04-20.17,9.02,20.17ZM66.61,177.7l-3.25-7.57-3.25,7.57h6.51Z"/>
      <path class="st0" d="M77.44,185.5h-2.19v-19.62h2.19v19.62Z"/>
      <path class="st0" d="M97.7,184.23c-.72.47-1.69.86-2.91,1.18-1.22.32-2.33.48-3.33.48-3.01,0-5.5-.96-7.47-2.89-1.97-1.93-2.96-4.37-2.96-7.34s1-5.3,3.01-7.25c2.01-1.95,4.49-2.93,7.45-2.93,1.23,0,2.39.15,3.47.45,1.08.3,2,.72,2.75,1.26v2.45c-.81-.65-1.74-1.17-2.8-1.54-1.06-.38-2.11-.57-3.15-.57-2.42,0-4.45.77-6.09,2.32-1.64,1.55-2.45,3.48-2.45,5.8s.79,4.29,2.36,5.84c1.57,1.55,3.52,2.33,5.84,2.33,1.14,0,2.28-.19,3.41-.57s2.09-.89,2.88-1.54v2.5Z"/>
      <path class="st0" d="M120.54,175.69c0,2.87-.99,5.29-2.97,7.26-1.98,1.97-4.42,2.95-7.31,2.95s-5.34-.99-7.31-2.96-2.97-4.39-2.97-7.25.98-5.33,2.94-7.28,4.41-2.92,7.34-2.92,5.37.97,7.33,2.92c1.97,1.95,2.95,4.38,2.95,7.28ZM118.36,175.69c0-2.3-.78-4.23-2.33-5.8-1.55-1.57-3.47-2.35-5.77-2.35-2.43,0-4.39.8-5.87,2.39-1.48,1.59-2.22,3.51-2.22,5.76s.77,4.23,2.31,5.8c1.54,1.57,3.47,2.35,5.78,2.35s4.21-.79,5.76-2.36c1.55-1.57,2.33-3.5,2.33-5.79Z"/>
      <path class="st0" d="M141.67,186.05l-15.2-15.47v14.92h-2.19v-20.17l15.2,15.43v-14.88h2.19v20.17Z"/>
      <path class="st0" d="M175.36,185.5h-2.21l-1.88-13.38-6.44,13.93-6.43-13.93-1.88,13.38h-2.24l3.15-20.17,7.45,16.05,7.38-16.05,3.1,20.17Z"/>
      <path class="st0" d="M195.14,185.5h-2.41l-2.55-5.94h-8.15l-2.53,5.94h-2.41l9.04-20.17,9.02,20.17ZM189.37,177.7l-3.25-7.57-3.25,7.57h6.51Z"/>
      <path class="st0" d="M211.57,185.5h-2.78l-8.59-10.16v10.16h-2.19v-19.62h2.19v9.19l8.38-9.19h2.63l-8.62,9.24,8.99,10.38Z"/>
      <path class="st0" d="M224.31,180.27c0,1.75-.54,3.12-1.63,4.12-1.08,1-2.57,1.51-4.45,1.51-1.3,0-2.43-.3-3.4-.89-.97-.59-1.68-1.41-2.12-2.47l1.56-1.33c.3.82.81,1.47,1.53,1.93.72.47,1.56.7,2.51.7,1.19,0,2.12-.31,2.79-.92.67-.61,1.01-1.47,1.01-2.58,0-.9-.31-1.68-.93-2.34s-1.67-1.36-3.13-2.08c-1.74-.86-2.95-1.69-3.63-2.5-.68-.81-1.02-1.84-1.02-3.09,0-1.45.49-2.62,1.47-3.51s2.28-1.33,3.9-1.33c.98,0,1.85.19,2.59.58.75.39,1.38.96,1.89,1.73l-1.49,1.39c-.29-.52-.71-.92-1.25-1.21s-1.16-.43-1.85-.43c-.96,0-1.71.24-2.26.72s-.83,1.14-.83,1.96c0,.75.21,1.37.63,1.88.42.51,1.25,1.1,2.48,1.77l.11.05c3.66,1.97,5.49,4.08,5.49,6.34Z"/>
      <path class="st0" d="M241.8,178.16c0,2.62-.57,4.56-1.7,5.83-1.13,1.27-2.86,1.91-5.18,1.91s-4.02-.64-5.17-1.93c-1.15-1.29-1.72-3.22-1.72-5.81v-12.28h2.19v12.72c0,1.76.39,3.08,1.16,3.94.78.86,1.96,1.3,3.54,1.3s2.77-.43,3.54-1.28c.77-.86,1.15-2.17,1.15-3.95v-12.72h2.19v12.28Z"/>
      <path class="st0" d="M256.46,185.5h-9.94v-19.62h9.94v2.06h-7.75v5.96h7.75v2.05h-7.75v7.5h7.75v2.06Z"/>
      <path class="st0" d="M268.49,185.5h-7.41v-19.62h2.19v17.62h5.22v2.01Z"/>
    </g>
  </g>
  <g>
    <path class="st0" d="M96.94,196.44c-.87-.79-1.68-.87-2.13-.87-1.71,0-2.86,1.26-2.86,2.99s1.2,2.94,2.87,2.94c.94,0,1.67-.48,2.12-.91v1.42c-.79.47-1.61.59-2.15.59-1.42,0-2.32-.65-2.78-1.08-.92-.86-1.26-1.86-1.26-2.97,0-1.45.6-2.45,1.26-3.07.81-.77,1.75-1.02,2.84-1.02.72,0,1.41.13,2.1.56v1.41Z"/>
    <path class="st0" d="M117.74,198.53c0,2.31-1.73,4.07-4.08,4.07s-4.08-1.77-4.08-4.07,1.73-4.07,4.08-4.07,4.08,1.77,4.08,4.07ZM116.54,198.53c0-1.74-1.2-2.97-2.88-2.97s-2.88,1.22-2.88,2.97,1.2,2.97,2.88,2.97,2.88-1.22,2.88-2.97Z"/>
    <path class="st0" d="M131.02,202.45v-8.38l5.7,5.97v-5.44h1.2v8.33l-5.7-5.97v5.49h-1.2Z"/>
    <path class="st0" d="M157.39,196.44c-.87-.79-1.68-.87-2.13-.87-1.71,0-2.86,1.26-2.86,2.99s1.2,2.94,2.87,2.94c.94,0,1.67-.48,2.12-.91v1.42c-.79.47-1.61.59-2.15.59-1.42,0-2.32-.65-2.78-1.08-.92-.86-1.26-1.86-1.26-2.97,0-1.45.6-2.45,1.26-3.07.81-.77,1.75-1.02,2.84-1.02.72,0,1.41.13,2.1.56v1.41Z"/>
    <path class="st0" d="M174.97,195.73h-3.13v1.99h3.04v1.13h-3.04v2.47h3.13v1.13h-4.33v-7.85h4.33v1.13Z"/>
    <path class="st0" d="M190.03,194.6c.48,0,1.15.05,1.72.42.66.44.98,1.19.98,1.91,0,.46-.12,1.17-.77,1.72-.62.53-1.34.61-1.92.61h-.54v3.19h-1.2v-7.85h1.73ZM189.5,198.15h.54c1.04,0,1.53-.51,1.53-1.24,0-.44-.18-1.21-1.54-1.21h-.53v2.45Z"/>
    <path class="st0" d="M207.9,195.73v6.72h-1.2v-6.72h-1.8v-1.13h4.8v1.13h-1.8Z"/>
  </g>
</svg>